<svg width="414" xmlns="http://www.w3.org/2000/svg" height="62" id="screenshot-30f12f2f-c784-805d-8006-87a906c54dda" viewBox="-104 -9 414 62" xmlns:xlink="http://www.w3.org/1999/xlink" fill="none" version="1.1"><g id="shape-30f12f2f-c784-805d-8006-87a906c54dda"><g class="frame-container-wrapper"><g class="frame-container-blur"><g class="frame-container-shadows"><g fill="none"><g class="fills" id="fills-30f12f2f-c784-805d-8006-87a906c54dda"><rect rx="0" ry="0" x="0" y="0" width="206" height="46" transform="matrix(1.000000, 0.000000, 0.000000, 1.000000, 0.000000, 0.000000)" class="frame-background"/></g><g class="frame-children"><g id="shape-30f12f2f-c784-805d-8006-87a906c54e0d"><g class="fills" id="fills-30f12f2f-c784-805d-8006-87a906c54e0d"><rect rx="0" ry="0" x="-104" y="-9" transform="matrix(1.000000, 0.000000, 0.000000, 1.000000, 0.000000, 0.000000)" width="414" height="62" style="fill: rgb(255, 255, 255); fill-opacity: 1;"/></g></g><g id="shape-30f12f2f-c784-805d-8006-87a906c54e0e" version="1.1" rx="0" ry="0" style="fill: rgb(0, 0, 0);"><g id="shape-30f12f2f-c784-805d-8006-87a906c58eef" style="display: none;"><g class="fills" id="fills-30f12f2f-c784-805d-8006-87a906c58eef"><rect width="206" height="46" x="0" transform="matrix(1.000000, 0.000000, 0.000000, 1.000000, 0.000000, 0.000000)" style="fill: none;" ry="0" fill="none" rx="0" y="0"/></g></g><g id="shape-30f12f2f-c784-805d-8006-87a906c58ef0"><defs style="fill: rgb(0, 0, 0);"><g id="shape-30f12f2f-c784-805d-8006-87a906c58f1e"><style>#shape-30f12f2f-c784-805d-8006-87a906c54e0e{ .st0 {
        fill: #fff;
      }

      .st1 {
        fill: #00bcc9;
      }

      .st2 {
        fill: #009c77;
      } }</style></g></defs></g><g id="shape-30f12f2f-c784-805d-8006-87a906c58ef1"><g class="fills" id="fills-30f12f2f-c784-805d-8006-87a906c58ef1"><path d="M72.71923828125,22.70068359375L71.30322265625,22.70068359375L71.36572265625,20.92626953125L71.36572265625,10.5478515625L71.30322265625,9.294921875L72.8193359375,9.35986328125L75.114013671875,9.35986328125L76.286376953125,9.294921875C75.526611328125,12.52001953125,74.72021484375,14.279296875,74.72021484375,14.279296875C77.605712890625,17.5068359375,76.698974609375,20.0927734375,73.794677734375,20.27197265625C73.794677734375,20.27197265625,73.97607421875,19.275390625,73.23193359375,18.57763671875C74.998291015625,18.744140625,75.392333984375,18.59619140625,74.9482421875,16.966796875C74.72021484375,16.13671875,74.157470703125,15.2080078125,73.428955078125,14.572265625C73.428955078125,14.572265625,73.97607421875,13.56298828125,74.570068359375,10.5478515625L72.65380859375,10.5478515625L72.65380859375,20.892578125L72.71923828125,22.70068359375ZM81.203857421875,14.72021484375L82.97021484375,14.72021484375L84.486328125,14.6708984375L84.486328125,16.1181640625L82.97021484375,16.05029296875L81.203857421875,16.05029296875L81.203857421875,20.7470703125L81.266357421875,22.6171875L79.665771484375,22.6171875L79.712646484375,20.7470703125L79.712646484375,16.05029296875L78.165283203125,16.05029296875L76.380126953125,16.099609375L76.380126953125,14.6494140625L78.146484375,14.716796875L79.712646484375,14.716796875L79.712646484375,10.8720703125C79.712646484375,10.8720703125,77.78369140625,11.36279296875,77.1240234375,11.4765625C76.977294921875,10.8720703125,76.264404296875,10.10986328125,76.264404296875,10.10986328125C76.264404296875,10.10986328125,79.4345703125,10.076171875,82.6201171875,8.5576171875C83.098388671875,9.22705078125,83.77685546875,10.09130859375,83.77685546875,10.09130859375C83.77685546875,10.09130859375,82.8828125,10.236328125,82.50439453125,10.3193359375C81.863525390625,10.4677734375,81.203857421875,10.59765625,81.203857421875,10.59765625L81.203857421875,14.716796875Z" class="st2"/></g></g><g id="shape-30f12f2f-c784-805d-8006-87a906c58ef2"><g class="fills" id="fills-30f12f2f-c784-805d-8006-87a906c58ef2"><path d="M93.255615234375,8.94921875C92.564697265625,11.19921875,91.63916015625,14.2109375,91.63916015625,14.2109375C94.47802734375,17.876953125,92.892822265625,20.1611328125,90.451171875,20.3212890625C90.3544921875,19.3896484375,89.9228515625,18.98828125,89.72607421875,18.6767578125C92.10205078125,19.1669921875,92.4677734375,16.76953125,90.288818359375,14.62158203125C90.288818359375,14.62158203125,90.817138671875,12.60009765625,91.4453125,10.220703125L89.5634765625,10.220703125L89.5634765625,20.728515625L89.629150390625,22.6669921875L88.10986328125,22.6669921875L88.178466796875,20.759765625L88.178466796875,10.529296875L88.10986328125,8.884765625L89.8291015625,8.9462890625L93.26171875,8.9462890625ZM95.30322265625,9.08203125L100.155029296875,9.08203125L101.64013671875,9.017578125L101.64013671875,10.4365234375L100.155029296875,10.3564453125L98.00732421875,10.3564453125L97.44775390625,12.603515625L99.26416015625,12.603515625L100.58642578125,12.5380859375L100.517822265625,14.08447265625L100.517822265625,20.29052734375L100.58642578125,22.50634765625L99.135986328125,22.50634765625L99.135986328125,21.4326171875L95.24072265625,21.4326171875L95.24072265625,22.54296875L93.787109375,22.54296875L93.8525390625,20.32421875L93.8525390625,14.15234375L93.787109375,12.5380859375L95.07177734375,12.603515625L96.228515625,12.603515625L96.494384765625,10.3564453125L95.206298828125,10.3564453125L93.721435546875,10.4365234375L93.721435546875,9.017578125L95.306396484375,9.08203125ZM95.237548828125,13.85302734375L95.237548828125,16.43310546875L99.1328125,16.43310546875L99.1328125,13.85302734375L95.237548828125,13.85302734375ZM95.237548828125,17.6640625L95.237548828125,20.1884765625L99.1328125,20.1884765625L99.1328125,17.6640625L95.237548828125,17.6640625Z" class="st2"/></g></g><g id="shape-30f12f2f-c784-805d-8006-87a906c58ef3"><g class="fills" id="fills-30f12f2f-c784-805d-8006-87a906c58ef3"><path d="M108.02685546875,22.7841796875L106.5263671875,22.7841796875L106.592041015625,21.54345703125L106.592041015625,16.525390625C106.17626953125,17.291015625,104.7099609375,18.5126953125,104.7099609375,18.5126953125C104.478759765625,17.6796875,103.916015625,17.046875,103.916015625,17.046875C104.791259765625,16.5869140625,106.901611328125,14.5693359375,107.648681640625,13.0078125L105.303955078125,13.0078125L104.212890625,13.0380859375L104.212890625,11.63720703125L105.335205078125,11.7021484375L108.66796875,11.7021484375L109.85888671875,11.66796875C109.411865234375,13.0693359375,108.355224609375,14.599609375,107.97705078125,15.056640625L107.97705078125,21.5400390625L108.02685546875,22.78125ZM107.97705078125,8.6748046875C108.386474609375,9.3134765625,108.767822265625,10.8564453125,108.767822265625,10.8564453125C108.27392578125,10.9248046875,107.020263671875,11.3134765625,107.020263671875,11.3134765625C107.020263671875,11.3134765625,106.95166015625,9.9150390625,106.42333984375,9.0361328125L107.97705078125,8.677734375ZM110.64990234375,17.47607421875C110.202880859375,17.6181640625,109.296142578125,18.28759765625,109.296142578125,18.28759765625C109.01806640625,17.7509765625,108.47412109375,16.5283203125,108.076904296875,16.0068359375L109.16796875,15.35595703125C109.761962890625,16.10595703125,110.653076171875,17.4794921875,110.653076171875,17.4794921875ZM113.388427734375,12.912109375L113.388427734375,9.84765625L113.325927734375,8.544921875L114.910888671875,8.544921875L114.84521484375,9.81640625L114.84521484375,12.912109375L116.198974609375,12.912109375L117.884033203125,12.84375L117.884033203125,14.1494140625L116.261474609375,14.08154296875L114.84521484375,14.08154296875L114.84521484375,20.3740234375L117.08984375,20.3740234375L118.543701171875,20.3056640625L118.543701171875,21.7412109375L117.12109375,21.6728515625L111.38134765625,21.6728515625L109.565185546875,21.7412109375L109.565185546875,20.3056640625L111.609619140625,20.3740234375L113.3916015625,20.3740234375L113.3916015625,14.08154296875L111.744140625,14.08154296875L110.421630859375,14.1494140625L110.421630859375,12.84375L111.90673828125,12.912109375L113.3916015625,12.912109375Z" class="st2"/></g></g><g id="shape-30f12f2f-c784-805d-8006-87a906c58ef4"><g class="fills" id="fills-30f12f2f-c784-805d-8006-87a906c58ef4"><path d="M123.75830078125,8.94921875L133.26513671875,8.94921875L134.846923828125,8.8876953125L134.846923828125,10.18701171875L133.26513671875,10.10986328125L123.595703125,10.10986328125L123.595703125,21.4326171875L133.993408203125,21.4326171875L135.509765625,21.3642578125L135.509765625,22.75L133.993408203125,22.6884765625L123.76123046875,22.6884765625L122.157470703125,22.75L122.22314453125,21.1728515625L122.22314453125,10.41845703125L122.157470703125,8.8876953125L123.76123046875,8.94921875ZM126.071533203125,16.072265625L127.70654296875,16.072265625L129.191650390625,16.0068359375L129.1259765625,17.26318359375L129.1259765625,19.1025390625L129.191650390625,20.392578125L127.90673828125,20.32763671875L126.140380859375,20.32763671875L124.655517578125,20.361328125L124.718017578125,19.142578125L124.718017578125,17.26611328125L124.655517578125,16.01025390625L126.071533203125,16.0751953125ZM127.0751953125,11.03564453125L131.630126953125,11.03564453125L133.00244140625,10.970703125L132.93359375,12.2080078125L132.93359375,13.76953125L133.00244140625,15.0751953125L131.567626953125,15.00732421875L127.17822265625,15.00732421875L125.708984375,15.0751953125L125.771484375,13.73583984375L125.771484375,12.236328125L125.708984375,10.9677734375L127.078125,11.0322265625ZM125.9716796875,17.1923828125L125.9716796875,19.23193359375L127.869140625,19.23193359375L127.869140625,17.1923828125L125.9716796875,17.1923828125ZM127.009521484375,12.21142578125L127.009521484375,13.837890625L131.630126953125,13.837890625L131.630126953125,12.21142578125L127.009521484375,12.21142578125ZM131.3330078125,16.00390625L133.1025390625,16.00390625L134.58740234375,15.939453125L134.521728515625,17.1923828125L134.521728515625,18.98828125L134.58740234375,20.3212890625L133.302734375,20.2568359375L131.40185546875,20.2568359375L129.9169921875,20.287109375L129.985595703125,19.01904296875L129.985595703125,17.1923828125L129.9169921875,15.939453125L131.3330078125,16.00390625ZM131.23291015625,17.13037109375L131.23291015625,19.13623046875L133.26513671875,19.13623046875L133.26513671875,17.13037109375L131.23291015625,17.13037109375Z" class="st2"/></g></g><g id="shape-30f12f2f-c784-805d-8006-87a906c58ef5"><g class="fills" id="fills-30f12f2f-c784-805d-8006-87a906c58ef5"><path d="M141.7998046875,13.85302734375L141.0712890625,15.10595703125C140.11474609375,14.29443359375,138.598388671875,13.7236328125,138.598388671875,13.7236328125L139.289306640625,12.646484375C140.82421875,13.12158203125,141.7998046875,13.85009765625,141.7998046875,13.85009765625ZM141.634033203125,16.951171875C140.86181640625,19.8828125,140.183349609375,22.228515625,140.183349609375,22.228515625L138.6328125,21.4013671875C139.523681640625,19.9326171875,140.314697265625,16.380859375,140.314697265625,16.380859375L141.634033203125,16.951171875ZM142.231201171875,10.5634765625L141.340087890625,11.7666015625C140.414794921875,10.90625,138.767333984375,10.15625,138.767333984375,10.15625L139.592529296875,9.1162109375C140.764892578125,9.68701171875,142.234130859375,10.56640625,142.234130859375,10.56640625ZM147.148681640625,19.44482421875C147.148681640625,19.44482421875,148.105224609375,18.83984375,148.664794921875,17.732421875L144.9697265625,17.732421875C144.63818359375,17.732421875,143.78173828125,17.7783203125,143.78173828125,17.7783203125L143.78173828125,16.60888671875C143.78173828125,16.60888671875,144.656982421875,16.658203125,144.935302734375,16.658203125L149.293212890625,16.658203125C149.88720703125,16.658203125,150.8095703125,16.62109375,150.8095703125,16.62109375C150.349853515625,17.892578125,149.6904296875,18.83984375,148.40234375,20.17626953125C148.40234375,20.17626953125,149.740234375,21.02197265625,153.019775390625,20.8271484375C153.019775390625,20.8271484375,152.57568359375,21.2685546875,152.428955078125,21.626953125C152.297607421875,21.935546875,152.23193359375,22.5029296875,152.23193359375,22.5029296875C149.408935546875,22.48779296875,147.179931640625,21.02197265625,147.179931640625,21.02197265625C145.94189453125,21.787109375,144.688232421875,22.19775390625,142.75634765625,22.734375C142.75634765625,22.734375,142.609375,22.29296875,142.45947265625,22.0498046875C142.296875,21.7900390625,141.8310546875,21.4013671875,141.8310546875,21.4013671875C143.650390625,21.12060546875,145.18212890625,20.75,145.991943359375,20.17626953125C145.991943359375,20.17626953125,145.08544921875,19.5068359375,144.31005859375,18.59619140625C144.86962890625,18.302734375,145.466796875,17.9296875,145.466796875,17.9296875C145.960693359375,18.626953125,146.48583984375,19.01904296875,147.148681640625,19.44189453125ZM143.384765625,16.4794921875L143.384765625,17.0654296875L142.031005859375,17.0654296875C142.031005859375,17.0654296875,142.062255859375,16.59033203125,142.062255859375,16.4111328125L142.062255859375,15.45166015625C142.062255859375,15.14306640625,142.015380859375,14.705078125,142.015380859375,14.705078125C142.015380859375,14.705078125,142.74072265625,14.7353515625,143.1533203125,14.7353515625L151.47216796875,14.7353515625C152.128662109375,14.7353515625,152.67578125,14.68310546875,152.67578125,14.68310546875C152.66015625,14.93017578125,152.625732421875,15.25390625,152.625732421875,15.466796875L152.625732421875,16.1025390625C152.625732421875,16.380859375,152.67578125,16.81884765625,152.67578125,16.81884765625L151.23779296875,16.81884765625L151.23779296875,15.8408203125L143.384765625,15.8408203125L143.384765625,16.4794921875ZM152.050537109375,12.1435546875L150.8095703125,12.09716796875L150.8095703125,13.16796875L150.859619140625,14.115234375L149.54345703125,14.0537109375L145.05419921875,14.03515625L143.700439453125,14.10302734375L143.700439453125,12.83154296875L145.03857421875,12.880859375L149.524658203125,12.880859375L149.524658203125,12.05078125L144.375732421875,12.0322265625L143.087646484375,12.1005859375L143.087646484375,10.859375L144.44140625,10.927734375L149.51220703125,10.927734375L149.524658203125,10.1435546875L144.9697265625,10.1591796875L143.9130859375,10.2236328125L143.9130859375,8.9521484375L145.00390625,9.0205078125L149.755859375,9.0048828125C149.755859375,9.0048828125,150.518798828125,8.9892578125,150.878173828125,8.9404296875L150.8095703125,10.1748046875L150.8251953125,10.9306640625L152.04736328125,10.83203125L152.04736328125,12.1494140625Z" class="st2"/></g></g><g id="shape-30f12f2f-c784-805d-8006-87a906c58ef6"><g class="fills" id="fills-30f12f2f-c784-805d-8006-87a906c58ef6"><path d="M156.71484375,15.939453125C156.367919921875,15.25390625,155.692626953125,14.63671875,155.692626953125,14.63671875C157.674560546875,12.9765625,158.53125,8.34765625,158.53125,8.34765625C159.209716796875,8.5419921875,160.444580078125,8.900390625,160.444580078125,8.900390625C160.1005859375,9.3564453125,159.556640625,10.609375,159.259765625,11.18359375L159.259765625,20.6640625L159.3251953125,22.521484375L157.740234375,22.521484375L157.802734375,20.7626953125L157.802734375,14.0537109375C157.490234375,14.8994140625,156.71484375,15.939453125,156.71484375,15.939453125ZM160.29443359375,10.3349609375C160.29443359375,10.3349609375,161.219970703125,10.384765625,161.585693359375,10.384765625L168.48193359375,10.384765625C168.763427734375,10.384765625,169.8857421875,10.3193359375,169.8857421875,10.3193359375L169.8857421875,11.67138671875C169.8857421875,11.67138671875,168.810302734375,11.59423828125,168.46337890625,11.59423828125L161.585693359375,11.59423828125C161.254150390625,11.59423828125,160.29443359375,11.67138671875,160.29443359375,11.67138671875L160.29443359375,10.337890625ZM160.69140625,12.5849609375C160.69140625,12.5849609375,161.766845703125,12.6337890625,162.129638671875,12.6337890625L167.459716796875,12.6337890625C167.7255859375,12.6337890625,168.7822265625,12.5849609375,168.7822265625,12.5849609375L168.7822265625,13.8837890625C168.7822265625,13.8837890625,167.7880859375,13.806640625,167.444091796875,13.806640625L162.145263671875,13.806640625C161.81689453125,13.83447265625,160.69140625,13.8837890625,160.69140625,13.8837890625L160.69140625,12.5849609375ZM160.725830078125,14.7353515625C160.725830078125,14.7353515625,161.601318359375,14.7822265625,161.967041015625,14.7822265625L167.528564453125,14.7822265625C167.84130859375,14.7822265625,168.91357421875,14.7509765625,168.91357421875,14.7509765625L168.91357421875,16.072265625C168.91357421875,16.072265625,167.82568359375,16.0380859375,167.509765625,15.99169921875L161.982666015625,15.99169921875C161.654296875,16.0224609375,160.725830078125,16.072265625,160.725830078125,16.072265625L160.725830078125,14.7353515625ZM168.979248046875,17.11181640625C168.979248046875,17.11181640625,168.910400390625,17.8154296875,168.910400390625,18.07470703125L168.910400390625,20.904296875C168.910400390625,21.2998046875,168.963623046875,22.37353515625,168.963623046875,22.37353515625L167.528564453125,22.37353515625L167.528564453125,21.361328125L162.542236328125,21.361328125L162.542236328125,22.5400390625L161.104248046875,22.5400390625C161.104248046875,22.5400390625,161.1884765625,21.4443359375,161.1884765625,21.07421875L161.1884765625,18.2197265625C161.1884765625,17.95751953125,161.119873046875,17.0810546875,161.119873046875,17.0810546875C161.119873046875,17.0810546875,162.060791015625,17.11181640625,162.342041015625,17.1611328125L167.7724609375,17.1611328125C167.985107421875,17.1611328125,168.97607421875,17.11181640625,168.97607421875,17.11181640625ZM162.542236328125,20.0927734375L167.528564453125,20.0927734375L167.528564453125,18.3984375L162.542236328125,18.3984375L162.542236328125,20.0927734375ZM165.396484375,8.06982421875C165.396484375,8.06982421875,165.77783203125,8.6904296875,166.106201171875,9.69921875L164.30859375,10.15625C164.30859375,10.15625,164.0771484375,9.3134765625,163.68017578125,8.5263671875L165.396484375,8.06982421875Z" class="st2"/></g></g><g id="shape-30f12f2f-c784-805d-8006-87a906c58ef7"><g class="fills" id="fills-30f12f2f-c784-805d-8006-87a906c58ef7"><path d="M185.273193359375,15.98828125L185.338623046875,17.0810546875L184.18212890625,16.998046875L175.46923828125,16.998046875L174.425048828125,17.05029296875L174.47509765625,16.18603515625L174.47509765625,13.15576171875C174.1123046875,13.44580078125,173.38720703125,13.67724609375,173.38720703125,13.67724609375C173.38720703125,13.67724609375,173.12451171875,12.9921875,172.461669921875,12.60009765625C174.44384765625,12.0634765625,177.879638671875,10.220703125,178.914306640625,8.134765625L180.896240234375,8.7861328125L180.6494140625,9.0791015625C182.052978515625,10.6591796875,185.27001953125,11.736328125,187.067626953125,11.86572265625C187.067626953125,11.86572265625,186.4765625,12.6123046875,186.276611328125,13.380859375C186.045166015625,13.30078125,185.7294921875,13.13720703125,185.320068359375,12.9892578125L185.27001953125,14.1123046875L185.27001953125,15.98828125ZM183.14404296875,11.998046875L183.14404296875,12.50146484375C183.14404296875,12.50146484375,182.596923828125,12.4677734375,182.15625,12.4677734375L177.763916015625,12.4677734375L176.57275390625,12.50146484375L176.57275390625,11.9677734375C176.57275390625,11.9677734375,175.566162109375,12.6337890625,174.759521484375,12.923828125L175.22216796875,12.9580078125L184.116455078125,12.9580078125L185.123046875,12.912109375C184.413330078125,12.60009765625,183.6005859375,12.2392578125,183.140869140625,11.998046875ZM184.529052734375,17.55322265625C184.529052734375,17.55322265625,184.497802734375,18.2353515625,184.497802734375,18.51611328125L184.497802734375,21.626953125C184.497802734375,22,184.5478515625,22.79931640625,184.5478515625,22.79931640625L183.240966796875,22.79931640625L183.240966796875,22.06494140625L176.507080078125,22.06494140625L176.507080078125,22.9599609375L175.169189453125,22.9599609375C175.169189453125,22.9599609375,175.25341796875,22.24072265625,175.25341796875,21.802734375L175.25341796875,18.642578125C175.25341796875,18.3984375,175.22216796875,17.5224609375,175.22216796875,17.5224609375C175.22216796875,17.5224609375,176.04443359375,17.568359375,176.37890625,17.568359375L183.441162109375,17.568359375L184.529052734375,17.55322265625ZM175.70068359375,14.08154296875L175.70068359375,15.892578125L179.1298828125,15.892578125L179.1298828125,14.08154296875L175.70068359375,14.08154296875ZM178.410888671875,15.3525390625L177.219970703125,15.8408203125C176.972900390625,15.37109375,176.822998046875,15.01025390625,176.51025390625,14.68310546875L177.6982421875,14.146484375C177.6982421875,14.146484375,178.145263671875,14.716796875,178.410888671875,15.349609375ZM176.507080078125,19.275390625L183.240966796875,19.275390625L183.240966796875,18.61181640625L176.507080078125,18.61181640625L176.507080078125,19.275390625ZM176.507080078125,21.00634765625L183.240966796875,21.00634765625L183.240966796875,20.35546875L176.507080078125,20.35546875L176.507080078125,21.00634765625ZM177.53564453125,11.412109375L181.9560546875,11.412109375C181.9560546875,11.412109375,180.35546875,10.4365234375,179.66162109375,9.5390625C179.66162109375,9.5390625,178.323486328125,10.8291015625,177.532470703125,11.412109375ZM183.985107421875,14.08154296875L180.35546875,14.08154296875L180.35546875,15.892578125L181.149658203125,15.892578125C181.477783203125,15.02587890625,181.84033203125,14.16162109375,181.84033203125,14.16162109375L183.209716796875,14.6337890625C183.209716796875,14.6337890625,182.596923828125,15.3837890625,182.30322265625,15.8896484375L183.985107421875,15.8896484375L183.985107421875,14.078125Z" class="st2"/></g></g><g id="shape-30f12f2f-c784-805d-8006-87a906c58ef8"><g class="fills" id="fills-30f12f2f-c784-805d-8006-87a906c58ef8"><rect rx="0" ry="0" x="19.207575803563486" y="30.31383335569626" transform="matrix(1.000000, 0.000000, 0.000000, 1.000000, 0.000000, 0.000000)" width="167.86308313351765" height="11.458338923923293" class="st1"/></g></g><g id="shape-30f12f2f-c784-805d-8006-87a906c58ef9"><g class="fills" id="fills-30f12f2f-c784-805d-8006-87a906c58ef9"><path d="M29.4365234375,36.4951171875L30.377685546875,36.7294921875C30.1806640625,37.4951171875,29.82421875,38.0751953125,29.3115234375,38.4794921875C28.798828125,38.880859375,28.17041015625,39.0810546875,27.4296875,39.0810546875C26.688720703125,39.0810546875,26.038330078125,38.9267578125,25.556884765625,38.6181640625C25.075439453125,38.3095703125,24.709716796875,37.8623046875,24.459716796875,37.279296875C24.20947265625,36.6923828125,24.081298828125,36.06640625,24.081298828125,35.3935546875C24.081298828125,34.662109375,24.22216796875,34.0234375,24.506591796875,33.47705078125C24.791015625,32.9306640625,25.1943359375,32.517578125,25.71630859375,32.236328125C26.238525390625,31.95556640625,26.813720703125,31.810546875,27.442138671875,31.810546875C28.15478515625,31.810546875,28.755126953125,31.9892578125,29.23974609375,32.34765625C29.72412109375,32.70556640625,30.06494140625,33.20849609375,30.255615234375,33.8564453125L29.3271484375,34.072265625C29.16162109375,33.560546875,28.9208984375,33.18701171875,28.608154296875,32.95556640625C28.29541015625,32.720703125,27.8984375,32.6064453125,27.42333984375,32.6064453125C26.876220703125,32.6064453125,26.419921875,32.736328125,26.05078125,32.99560546875C25.68212890625,33.2548828125,25.42578125,33.603515625,25.275634765625,34.03857421875C25.12548828125,34.4736328125,25.0537109375,34.92431640625,25.0537109375,35.390625C25.0537109375,35.9892578125,25.14111328125,36.5107421875,25.3193359375,36.955078125C25.49755859375,37.3994140625,25.76953125,37.7353515625,26.1416015625,37.955078125C26.513671875,38.173828125,26.916748046875,38.28515625,27.3515625,38.28515625C27.8798828125,38.28515625,28.32666015625,38.1337890625,28.692626953125,37.83447265625C29.058349609375,37.53515625,29.30517578125,37.087890625,29.4365234375,36.498046875Z" class="st0"/></g></g><g id="shape-30f12f2f-c784-805d-8006-87a906c58efa"><g class="fills" id="fills-30f12f2f-c784-805d-8006-87a906c58efa"><path d="M31.19970703125,38.9609375L31.19970703125,33.869140625L31.987548828125,33.869140625L31.987548828125,34.640625C32.187744140625,34.279296875,32.375244140625,34.0419921875,32.544189453125,33.9248046875C32.712890625,33.80712890625,32.900390625,33.751953125,33.103759765625,33.751953125C33.3974609375,33.751953125,33.69775390625,33.84423828125,34.00390625,34.029296875L33.703857421875,34.83203125C33.4912109375,34.7080078125,33.275634765625,34.6435546875,33.06298828125,34.6435546875C32.872314453125,34.6435546875,32.700439453125,34.69921875,32.547119140625,34.8134765625C32.39404296875,34.927734375,32.28759765625,35.0849609375,32.22216796875,35.28515625C32.125244140625,35.5908203125,32.0751953125,35.92724609375,32.0751953125,36.29150390625L32.0751953125,38.9580078125L31.19970703125,38.9580078125Z" class="st0"/></g></g><g id="shape-30f12f2f-c784-805d-8006-87a906c58efb"><g class="fills" id="fills-30f12f2f-c784-805d-8006-87a906c58efb"><path d="M33.97900390625,36.4150390625C33.97900390625,35.470703125,34.24462890625,34.7734375,34.776123046875,34.3193359375C35.22021484375,33.94287109375,35.760986328125,33.7548828125,36.398681640625,33.7548828125C37.1083984375,33.7548828125,37.686767578125,33.9833984375,38.136962890625,34.44287109375C38.587158203125,34.90283203125,38.812255859375,35.53515625,38.812255859375,36.34375C38.812255859375,36.998046875,38.712158203125,37.513671875,38.51220703125,37.8896484375C38.31201171875,38.2666015625,38.0244140625,38.556640625,37.64306640625,38.7666015625C37.26171875,38.97314453125,36.845703125,39.078125,36.3955078125,39.078125C35.67333984375,39.078125,35.0888671875,38.849609375,34.64501953125,38.39306640625C34.200927734375,37.9365234375,33.975830078125,37.27587890625,33.975830078125,36.41796875ZM34.876220703125,36.4150390625C34.876220703125,37.06591796875,35.02001953125,37.556640625,35.3076171875,37.880859375C35.59521484375,38.205078125,35.9580078125,38.3681640625,36.3955078125,38.3681640625C36.833251953125,38.3681640625,37.189697265625,38.205078125,37.477294921875,37.880859375C37.764892578125,37.556640625,37.90869140625,37.056640625,37.90869140625,36.39013671875C37.90869140625,35.7607421875,37.764892578125,35.2822265625,37.47412109375,34.9580078125C37.183349609375,34.63427734375,36.823974609375,34.470703125,36.392578125,34.470703125C35.9609375,34.470703125,35.59228515625,34.630859375,35.3046875,34.955078125C35.016845703125,35.279296875,34.873046875,35.7666015625,34.873046875,36.41796875Z" class="st0"/></g></g><g id="shape-30f12f2f-c784-805d-8006-87a906c58efc"><g class="fills" id="fills-30f12f2f-c784-805d-8006-87a906c58efc"><path d="M39.2685546875,37.439453125L40.134521484375,37.3037109375C40.1845703125,37.646484375,40.319091796875,37.908203125,40.541015625,38.0908203125C40.762939453125,38.2724609375,41.072509765625,38.365234375,41.47265625,38.365234375C41.872802734375,38.365234375,42.1728515625,38.28515625,42.36669921875,38.12109375C42.560546875,37.9609375,42.657470703125,37.76953125,42.657470703125,37.5537109375C42.657470703125,37.359375,42.572998046875,37.205078125,42.401123046875,37.09375C42.2822265625,37.0166015625,41.982177734375,36.9208984375,41.507080078125,36.80078125C40.8662109375,36.64013671875,40.422119140625,36.5009765625,40.172119140625,36.38720703125C39.925048828125,36.26953125,39.737548828125,36.109375,39.609375,35.90234375C39.481201171875,35.69580078125,39.418701171875,35.4677734375,39.418701171875,35.220703125C39.418701171875,34.9921875,39.471923828125,34.7822265625,39.574951171875,34.5908203125C39.68115234375,34.396484375,39.822021484375,34.236328125,40.00634765625,34.109375C40.14404296875,34.0107421875,40.328369140625,33.927734375,40.56298828125,33.8564453125C40.79736328125,33.78857421875,41.050537109375,33.7548828125,41.3193359375,33.7548828125C41.72265625,33.7548828125,42.0791015625,33.8134765625,42.385498046875,33.927734375C42.69189453125,34.0419921875,42.9169921875,34.19921875,43.06396484375,34.396484375C43.210693359375,34.59423828125,43.310791015625,34.8564453125,43.364013671875,35.1865234375L42.50732421875,35.30078125C42.4697265625,35.03857421875,42.357421875,34.8349609375,42.169677734375,34.6865234375C41.982177734375,34.53857421875,41.719482421875,34.4677734375,41.3818359375,34.4677734375C40.978759765625,34.4677734375,40.694091796875,34.5322265625,40.522216796875,34.6650390625C40.350341796875,34.7978515625,40.265869140625,34.94921875,40.265869140625,35.125C40.265869140625,35.236328125,40.30029296875,35.337890625,40.3720703125,35.42724609375C40.444091796875,35.52001953125,40.553466796875,35.59716796875,40.70654296875,35.65869140625C40.794189453125,35.689453125,41.050537109375,35.763671875,41.47900390625,35.8779296875C42.097900390625,36.04150390625,42.529296875,36.173828125,42.773193359375,36.279296875C43.01708984375,36.3837890625,43.210693359375,36.53515625,43.348388671875,36.732421875C43.489013671875,36.93017578125,43.557861328125,37.1767578125,43.557861328125,37.47021484375C43.557861328125,37.763671875,43.473388671875,38.02880859375,43.301513671875,38.2822265625C43.132568359375,38.53515625,42.8857421875,38.732421875,42.56689453125,38.87109375C42.244873046875,39.01025390625,41.882080078125,39.0810546875,41.47900390625,39.0810546875C40.809814453125,39.0810546875,40.297119140625,38.9423828125,39.947021484375,38.66796875C39.596923828125,38.39306640625,39.371826171875,37.9853515625,39.27490234375,37.4453125Z" class="st0"/></g></g><g id="shape-30f12f2f-c784-805d-8006-87a906c58efd"><g class="fills" id="fills-30f12f2f-c784-805d-8006-87a906c58efd"><path d="M44.023681640625,37.439453125L44.8896484375,37.3037109375C44.939697265625,37.646484375,45.073974609375,37.908203125,45.2958984375,38.0908203125C45.51806640625,38.2724609375,45.827392578125,38.365234375,46.2275390625,38.365234375C46.627685546875,38.365234375,46.927978515625,38.28515625,47.12158203125,38.12109375C47.3154296875,37.9609375,47.412353515625,37.76953125,47.412353515625,37.5537109375C47.412353515625,37.359375,47.328125,37.205078125,47.15625,37.09375C47.037353515625,37.0166015625,46.7373046875,36.9208984375,46.261962890625,36.80078125C45.62109375,36.64013671875,45.17724609375,36.5009765625,44.927001953125,36.38720703125C44.68017578125,36.26953125,44.492431640625,36.109375,44.3642578125,35.90234375C44.236328125,35.69580078125,44.173828125,35.4677734375,44.173828125,35.220703125C44.173828125,34.9921875,44.226806640625,34.7822265625,44.330078125,34.5908203125C44.436279296875,34.396484375,44.576904296875,34.236328125,44.761474609375,34.109375C44.89892578125,34.0107421875,45.08349609375,33.927734375,45.31787109375,33.8564453125C45.55224609375,33.78857421875,45.8056640625,33.7548828125,46.074462890625,33.7548828125C46.477783203125,33.7548828125,46.833984375,33.8134765625,47.140625,33.927734375C47.44677734375,34.0419921875,47.671875,34.19921875,47.81884765625,34.396484375C47.9658203125,34.59423828125,48.06591796875,34.8564453125,48.118896484375,35.1865234375L47.262451171875,35.30078125C47.224853515625,35.03857421875,47.1123046875,34.8349609375,46.9248046875,34.6865234375C46.7373046875,34.53857421875,46.474609375,34.4677734375,46.136962890625,34.4677734375C45.733642578125,34.4677734375,45.44921875,34.5322265625,45.27734375,34.6650390625C45.105224609375,34.7978515625,45.02099609375,34.94921875,45.02099609375,35.125C45.02099609375,35.236328125,45.05517578125,35.337890625,45.127197265625,35.42724609375C45.198974609375,35.52001953125,45.30859375,35.59716796875,45.461669921875,35.65869140625C45.54931640625,35.689453125,45.8056640625,35.763671875,46.23388671875,35.8779296875C46.852783203125,36.04150390625,47.2841796875,36.173828125,47.528076171875,36.279296875C47.77197265625,36.3837890625,47.9658203125,36.53515625,48.103271484375,36.732421875C48.244140625,36.93017578125,48.312744140625,37.1767578125,48.312744140625,37.47021484375C48.312744140625,37.763671875,48.228515625,38.02880859375,48.056396484375,38.2822265625C47.8876953125,38.53515625,47.640625,38.732421875,47.32177734375,38.87109375C46.999755859375,39.01025390625,46.63720703125,39.0810546875,46.23388671875,39.0810546875C45.56494140625,39.0810546875,45.05224609375,38.9423828125,44.7021484375,38.66796875C44.351806640625,38.39306640625,44.126708984375,37.9853515625,44.02978515625,37.4453125Z" class="st0"/></g></g><g id="shape-30f12f2f-c784-805d-8006-87a906c58efe"><g class="fills" id="fills-30f12f2f-c784-805d-8006-87a906c58efe"><path d="M49.119384765625,38.9609375L49.119384765625,33.869140625L49.9072265625,33.869140625L49.9072265625,34.640625C50.107177734375,34.279296875,50.294921875,34.0419921875,50.463623046875,33.9248046875C50.632568359375,33.80712890625,50.820068359375,33.751953125,51.023193359375,33.751953125C51.317138671875,33.751953125,51.6171875,33.84423828125,51.923583984375,34.029296875L51.62353515625,34.83203125C51.410888671875,34.7080078125,51.1953125,34.6435546875,50.982666015625,34.6435546875C50.7919921875,34.6435546875,50.6201171875,34.69921875,50.466796875,34.8134765625C50.3134765625,34.927734375,50.207275390625,35.0849609375,50.1416015625,35.28515625C50.044677734375,35.5908203125,49.99462890625,35.92724609375,49.99462890625,36.29150390625L49.99462890625,38.9580078125L49.119384765625,38.9580078125Z" class="st0"/></g></g><g id="shape-30f12f2f-c784-805d-8006-87a906c58eff"><g class="fills" id="fills-30f12f2f-c784-805d-8006-87a906c58eff"><path d="M51.898681640625,36.4150390625C51.898681640625,35.470703125,52.164306640625,34.7734375,52.69580078125,34.3193359375C53.1396484375,33.94287109375,53.6806640625,33.7548828125,54.318359375,33.7548828125C55.02783203125,33.7548828125,55.606201171875,33.9833984375,56.056396484375,34.44287109375C56.506591796875,34.90283203125,56.731689453125,35.53515625,56.731689453125,36.34375C56.731689453125,36.998046875,56.6318359375,37.513671875,56.431640625,37.8896484375C56.2314453125,38.2666015625,55.94384765625,38.556640625,55.5625,38.7666015625C55.18115234375,38.97314453125,54.765380859375,39.078125,54.315185546875,39.078125C53.593017578125,39.078125,53.00830078125,38.849609375,52.564453125,38.39306640625C52.12060546875,37.9365234375,51.8955078125,37.27587890625,51.8955078125,36.41796875ZM52.798828125,36.4150390625C52.798828125,37.06591796875,52.94287109375,37.556640625,53.23046875,37.880859375C53.51806640625,38.205078125,53.880615234375,38.3681640625,54.318359375,38.3681640625C54.755859375,38.3681640625,55.1123046875,38.205078125,55.39990234375,37.880859375C55.6875,37.556640625,55.83154296875,37.056640625,55.83154296875,36.39013671875C55.83154296875,35.7607421875,55.6875,35.2822265625,55.39697265625,34.9580078125C55.106201171875,34.63427734375,54.74658203125,34.470703125,54.315185546875,34.470703125C53.8837890625,34.470703125,53.514892578125,34.630859375,53.227294921875,34.955078125C52.939697265625,35.279296875,52.7958984375,35.7666015625,52.7958984375,36.41796875Z" class="st0"/></g></g><g id="shape-30f12f2f-c784-805d-8006-87a906c58f00"><g class="fills" id="fills-30f12f2f-c784-805d-8006-87a906c58f00"><path d="M60.9052734375,38.3310546875C60.580078125,38.6025390625,60.2705078125,38.7939453125,59.970458984375,38.908203125C59.67041015625,39.01953125,59.348388671875,39.0751953125,59.007568359375,39.0751953125C58.44189453125,39.0751953125,58.004150390625,38.939453125,57.700927734375,38.66455078125C57.397705078125,38.3896484375,57.244384765625,38.041015625,57.244384765625,37.615234375C57.244384765625,37.365234375,57.30078125,37.13671875,57.41650390625,36.93359375C57.531982421875,36.7265625,57.68212890625,36.5595703125,57.86962890625,36.4365234375C58.05712890625,36.31298828125,58.2666015625,36.21728515625,58.498046875,36.15234375C58.669921875,36.1064453125,58.929443359375,36.06298828125,59.2763671875,36.02294921875C59.98291015625,35.939453125,60.501953125,35.8408203125,60.83642578125,35.7265625C60.839599609375,35.609375,60.8427734375,35.5322265625,60.8427734375,35.50146484375C60.8427734375,35.1494140625,60.761474609375,34.90283203125,60.595703125,34.7578125C60.373779296875,34.5634765625,60.039306640625,34.46484375,59.5986328125,34.46484375C59.185791015625,34.46484375,58.882568359375,34.53515625,58.688720703125,34.677734375C58.49169921875,34.8193359375,58.34814453125,35.072265625,58.254150390625,35.43359375L57.40087890625,35.3193359375C57.47900390625,34.9580078125,57.607177734375,34.6650390625,57.78515625,34.44287109375C57.96337890625,34.220703125,58.2197265625,34.05078125,58.5576171875,33.9306640625C58.89501953125,33.810546875,59.285888671875,33.751953125,59.729736328125,33.751953125C60.173828125,33.751953125,60.52685546875,33.80419921875,60.802001953125,33.90625C61.0771484375,34.0078125,61.280517578125,34.1376953125,61.40869140625,34.2919921875C61.536865234375,34.4462890625,61.62744140625,34.6435546875,61.6806640625,34.8779296875C61.708740234375,35.0263671875,61.724365234375,35.29150390625,61.724365234375,35.67431640625L61.724365234375,36.8251953125C61.724365234375,37.6279296875,61.7431640625,38.13671875,61.780517578125,38.3466796875C61.818115234375,38.5595703125,61.89306640625,38.763671875,62.002685546875,38.9580078125L61.089599609375,38.9580078125C60.9990234375,38.77880859375,60.939697265625,38.56884765625,60.91455078125,38.328125ZM60.83349609375,36.4052734375C60.514404296875,36.53515625,60.039306640625,36.6435546875,59.40478515625,36.732421875C59.045166015625,36.78515625,58.7919921875,36.8408203125,58.641845703125,36.9052734375C58.49169921875,36.970703125,58.37939453125,37.06298828125,58.2978515625,37.1865234375C58.216796875,37.3095703125,58.176025390625,37.4453125,58.176025390625,37.5966796875C58.176025390625,37.828125,58.263671875,38.01953125,58.44189453125,38.1708984375C58.616943359375,38.3251953125,58.87646484375,38.40234375,59.217041015625,38.40234375C59.557861328125,38.40234375,59.85498046875,38.328125,60.117431640625,38.18310546875C60.380126953125,38.0380859375,60.573974609375,37.83740234375,60.69580078125,37.587890625C60.78955078125,37.39306640625,60.83642578125,37.1064453125,60.83642578125,36.7236328125L60.83642578125,36.4052734375Z" class="st0"/></g></g><g id="shape-30f12f2f-c784-805d-8006-87a906c58f01"><g class="fills" id="fills-30f12f2f-c784-805d-8006-87a906c58f01"><path d="M66.201171875,38.9609375L66.201171875,38.31884765625C65.872802734375,38.8251953125,65.39453125,39.078125,64.7568359375,39.078125C64.34423828125,39.078125,63.9658203125,38.966796875,63.6220703125,38.74169921875C63.278076171875,38.5166015625,63.00927734375,38.205078125,62.82177734375,37.8037109375C62.630859375,37.40234375,62.537109375,36.9423828125,62.537109375,36.4208984375C62.537109375,35.8994140625,62.62158203125,35.4521484375,62.79345703125,35.03857421875C62.96533203125,34.625,63.2216796875,34.30712890625,63.565673828125,34.087890625C63.90966796875,33.869140625,64.2939453125,33.7578125,64.716064453125,33.7578125C65.025634765625,33.7578125,65.303955078125,33.822265625,65.5478515625,33.9521484375C65.79150390625,34.08203125,65.988525390625,34.25146484375,66.1416015625,34.4580078125L66.1416015625,31.93701171875L67.0107421875,31.93701171875L67.0107421875,38.966796875L66.197998046875,38.966796875ZM63.4375,36.41796875C63.4375,37.0693359375,63.578125,37.556640625,63.8564453125,37.880859375C64.134765625,38.205078125,64.462890625,38.365234375,64.84423828125,38.365234375C65.2255859375,38.365234375,65.55078125,38.2109375,65.81982421875,37.90234375C66.088623046875,37.59375,66.2197265625,37.12158203125,66.2197265625,36.4892578125C66.2197265625,35.79150390625,66.082275390625,35.279296875,65.810302734375,34.955078125C65.538330078125,34.6279296875,65.203857421875,34.46484375,64.8037109375,34.46484375C64.403564453125,34.46484375,64.0908203125,34.6220703125,63.828369140625,34.93359375C63.56884765625,35.248046875,63.4375,35.7421875,63.4375,36.4150390625Z" class="st0"/></g></g><g id="shape-30f12f2f-c784-805d-8006-87a906c58f02"><g class="fills" id="fills-30f12f2f-c784-805d-8006-87a906c58f02"><path d="M75.908203125,36.4951171875L76.84912109375,36.7294921875C76.652099609375,37.4951171875,76.295654296875,38.0751953125,75.782958984375,38.4794921875C75.270263671875,38.880859375,74.641845703125,39.0810546875,73.90087890625,39.0810546875C73.16015625,39.0810546875,72.509765625,38.9267578125,72.0283203125,38.6181640625C71.546875,38.3095703125,71.18115234375,37.8623046875,70.93115234375,37.279296875C70.68115234375,36.6923828125,70.552734375,36.06640625,70.552734375,35.3935546875C70.552734375,34.662109375,70.693359375,34.0234375,70.97802734375,33.47705078125C71.262451171875,32.9306640625,71.665771484375,32.517578125,72.18798828125,32.236328125C72.7099609375,31.95556640625,73.28515625,31.810546875,73.91357421875,31.810546875C74.626220703125,31.810546875,75.2265625,31.9892578125,75.711181640625,32.34765625C76.19580078125,32.70556640625,76.536376953125,33.20849609375,76.72705078125,33.8564453125L75.798583984375,34.072265625C75.633056640625,33.560546875,75.392333984375,33.18701171875,75.07958984375,32.95556640625C74.76708984375,32.720703125,74.369873046875,32.6064453125,73.894775390625,32.6064453125C73.34765625,32.6064453125,72.891357421875,32.736328125,72.5224609375,32.99560546875C72.1533203125,33.2548828125,71.897216796875,33.603515625,71.7470703125,34.03857421875C71.596923828125,34.4736328125,71.525146484375,34.92431640625,71.525146484375,35.390625C71.525146484375,35.9892578125,71.612548828125,36.5107421875,71.790771484375,36.955078125C71.968994140625,37.3994140625,72.240966796875,37.7353515625,72.613037109375,37.955078125C72.985107421875,38.173828125,73.388427734375,38.28515625,73.82275390625,38.28515625C74.35107421875,38.28515625,74.79833984375,38.1337890625,75.1640625,37.83447265625C75.52978515625,37.53515625,75.77685546875,37.087890625,75.908203125,36.498046875Z" class="st0"/></g></g><g id="shape-30f12f2f-c784-805d-8006-87a906c58f03"><g class="fills" id="fills-30f12f2f-c784-805d-8006-87a906c58f03"><path d="M77.35546875,36.4150390625C77.35546875,35.470703125,77.62109375,34.7734375,78.15283203125,34.3193359375C78.5966796875,33.94287109375,79.137451171875,33.7548828125,79.775146484375,33.7548828125C80.48486328125,33.7548828125,81.063232421875,33.9833984375,81.513427734375,34.44287109375C81.963623046875,34.90283203125,82.188720703125,35.53515625,82.188720703125,36.34375C82.188720703125,36.998046875,82.088623046875,37.513671875,81.888671875,37.8896484375C81.6884765625,38.2666015625,81.40087890625,38.556640625,81.01953125,38.7666015625C80.63818359375,38.97314453125,80.22216796875,39.078125,79.77197265625,39.078125C79.0498046875,39.078125,78.46533203125,38.849609375,78.021484375,38.39306640625C77.577392578125,37.9365234375,77.352294921875,37.27587890625,77.352294921875,36.41796875ZM78.252685546875,36.4150390625C78.252685546875,37.06591796875,78.396484375,37.556640625,78.68408203125,37.880859375C78.9716796875,38.205078125,79.33447265625,38.3681640625,79.77197265625,38.3681640625C80.209716796875,38.3681640625,80.566162109375,38.205078125,80.853759765625,37.880859375C81.141357421875,37.556640625,81.28515625,37.056640625,81.28515625,36.39013671875C81.28515625,35.7607421875,81.141357421875,35.2822265625,80.8505859375,34.9580078125C80.559814453125,34.63427734375,80.200439453125,34.470703125,79.76904296875,34.470703125C79.337646484375,34.470703125,78.96875,34.630859375,78.68115234375,34.955078125C78.3935546875,35.279296875,78.24951171875,35.7666015625,78.24951171875,36.41796875Z" class="st0"/></g></g><g id="shape-30f12f2f-c784-805d-8006-87a906c58f04"><g class="fills" id="fills-30f12f2f-c784-805d-8006-87a906c58f04"><path d="M82.9951171875,38.9609375L82.9951171875,33.869140625L83.77685546875,33.869140625L83.77685546875,34.5849609375C83.939453125,34.3349609375,84.155029296875,34.13427734375,84.423828125,33.9833984375C84.69287109375,33.83203125,84.999267578125,33.7548828125,85.343017578125,33.7548828125C85.724365234375,33.7548828125,86.037109375,33.83203125,86.2841796875,33.9892578125C86.531005859375,34.146484375,86.69970703125,34.36572265625,86.802978515625,34.646484375C87.212646484375,34.05078125,87.740966796875,33.7548828125,88.3974609375,33.7548828125C88.91015625,33.7548828125,89.303955078125,33.8935546875,89.5791015625,34.17431640625C89.854248046875,34.455078125,89.99169921875,34.88427734375,89.99169921875,35.4677734375L89.99169921875,38.9638671875L89.12255859375,38.9638671875L89.12255859375,35.75439453125C89.12255859375,35.4091796875,89.094482421875,35.162109375,89.0380859375,35.0078125C88.98193359375,34.853515625,88.87890625,34.73291015625,88.728759765625,34.640625C88.57861328125,34.5478515625,88.403564453125,34.50146484375,88.20361328125,34.50146484375C87.8408203125,34.50146484375,87.540771484375,34.6220703125,87.300048828125,34.859375C87.059326171875,35.09716796875,86.9404296875,35.4794921875,86.9404296875,36.00439453125L86.9404296875,38.9638671875L86.065185546875,38.9638671875L86.065185546875,35.65576171875C86.065185546875,35.27294921875,85.993408203125,34.98291015625,85.8525390625,34.7919921875C85.708740234375,34.6005859375,85.4775390625,34.5048828125,85.15234375,34.5048828125C84.9052734375,34.5048828125,84.67724609375,34.5693359375,84.470703125,34.6962890625C84.26123046875,34.82568359375,84.111328125,35.0107421875,84.017578125,35.2578125C83.923828125,35.50439453125,83.876953125,35.859375,83.876953125,36.322265625L83.876953125,38.9638671875L83.00146484375,38.9638671875Z" class="st0"/></g></g><g id="shape-30f12f2f-c784-805d-8006-87a906c58f05"><g class="fills" id="fills-30f12f2f-c784-805d-8006-87a906c58f05"><path d="M91.06396484375,38.9609375L91.06396484375,33.869140625L91.845703125,33.869140625L91.845703125,34.5849609375C92.008056640625,34.3349609375,92.223876953125,34.13427734375,92.49267578125,33.9833984375C92.761474609375,33.83203125,93.06787109375,33.7548828125,93.411865234375,33.7548828125C93.793212890625,33.7548828125,94.10595703125,33.83203125,94.352783203125,33.9892578125C94.599853515625,34.146484375,94.7685546875,34.36572265625,94.871826171875,34.646484375C95.28125,34.05078125,95.8095703125,33.7548828125,96.46630859375,33.7548828125C96.97900390625,33.7548828125,97.372802734375,33.8935546875,97.64794921875,34.17431640625C97.923095703125,34.455078125,98.060546875,34.88427734375,98.060546875,35.4677734375L98.060546875,38.9638671875L97.19140625,38.9638671875L97.19140625,35.75439453125C97.19140625,35.4091796875,97.163330078125,35.162109375,97.10693359375,35.0078125C97.05078125,34.853515625,96.947509765625,34.73291015625,96.797607421875,34.640625C96.6474609375,34.5478515625,96.472412109375,34.50146484375,96.2724609375,34.50146484375C95.90966796875,34.50146484375,95.609619140625,34.6220703125,95.368896484375,34.859375C95.128173828125,35.09716796875,95.00927734375,35.4794921875,95.00927734375,36.00439453125L95.00927734375,38.9638671875L94.134033203125,38.9638671875L94.134033203125,35.65576171875C94.134033203125,35.27294921875,94.06201171875,34.98291015625,93.92138671875,34.7919921875C93.777587890625,34.6005859375,93.54638671875,34.5048828125,93.22119140625,34.5048828125C92.97412109375,34.5048828125,92.74609375,34.5693359375,92.53955078125,34.6962890625C92.330078125,34.82568359375,92.18017578125,35.0107421875,92.08642578125,35.2578125C91.99267578125,35.50439453125,91.945556640625,35.859375,91.945556640625,36.322265625L91.945556640625,38.9638671875L91.0703125,38.9638671875Z" class="st0"/></g></g><g id="shape-30f12f2f-c784-805d-8006-87a906c58f06"><g class="fills" id="fills-30f12f2f-c784-805d-8006-87a906c58f06"><path d="M102.515380859375,38.9609375L102.515380859375,38.2138671875C102.1123046875,38.7880859375,101.568115234375,39.078125,100.87744140625,39.078125C100.573974609375,39.078125,100.28955078125,39.01953125,100.02392578125,38.9052734375C99.76123046875,38.791015625,99.564208984375,38.64599609375,99.43603515625,38.47021484375C99.307861328125,38.29736328125,99.21728515625,38.0810546875,99.167236328125,37.828125C99.1328125,37.658203125,99.114013671875,37.39013671875,99.114013671875,37.0224609375L99.114013671875,33.86572265625L99.989501953125,33.86572265625L99.989501953125,36.689453125C99.989501953125,37.14013671875,100.00830078125,37.4453125,100.04248046875,37.599609375C100.098876953125,37.828125,100.214599609375,38.00390625,100.392578125,38.1337890625C100.57080078125,38.263671875,100.789794921875,38.328125,101.05224609375,38.328125C101.31494140625,38.328125,101.56201171875,38.263671875,101.7900390625,38.130859375C102.021484375,37.998046875,102.18408203125,37.81591796875,102.27783203125,37.587890625C102.374755859375,37.359375,102.421630859375,37.02587890625,102.421630859375,36.59375L102.421630859375,33.86572265625L103.296875,33.86572265625L103.296875,38.9580078125L102.515380859375,38.9580078125Z" class="st0"/></g></g><g id="shape-30f12f2f-c784-805d-8006-87a906c58f07"><g class="fills" id="fills-30f12f2f-c784-805d-8006-87a906c58f07"><path d="M104.447509765625,38.9609375L104.447509765625,33.869140625L105.2353515625,33.869140625L105.2353515625,34.59423828125C105.613525390625,34.03564453125,106.16064453125,33.7548828125,106.87646484375,33.7548828125C107.189208984375,33.7548828125,107.4736328125,33.810546875,107.733154296875,33.92138671875C107.99267578125,34.0322265625,108.189453125,34.177734375,108.31787109375,34.3564453125C108.44580078125,34.53515625,108.53955078125,34.74853515625,108.589599609375,34.9951171875C108.62109375,35.15576171875,108.6396484375,35.43359375,108.6396484375,35.8349609375L108.6396484375,38.966796875L107.764404296875,38.966796875L107.764404296875,35.86865234375C107.764404296875,35.5166015625,107.72998046875,35.2548828125,107.6611328125,35.07861328125C107.592529296875,34.90576171875,107.4736328125,34.7666015625,107.298583984375,34.662109375C107.126708984375,34.55712890625,106.92333984375,34.5078125,106.68896484375,34.5078125C106.31689453125,34.5078125,105.994873046875,34.625,105.72607421875,34.8564453125C105.4541015625,35.0908203125,105.319580078125,35.5322265625,105.319580078125,36.18359375L105.319580078125,38.9638671875L104.4443359375,38.9638671875Z" class="st0"/></g></g><g id="shape-30f12f2f-c784-805d-8006-87a906c58f08"><g class="fills" id="fills-30f12f2f-c784-805d-8006-87a906c58f08"><path d="M109.768310546875,32.92138671875L109.768310546875,31.927734375L110.6435546875,31.927734375L110.6435546875,32.92138671875L109.768310546875,32.92138671875ZM109.768310546875,38.9609375L109.768310546875,33.869140625L110.6435546875,33.869140625L110.6435546875,38.9609375L109.768310546875,38.9609375Z" class="st0"/></g></g><g id="shape-30f12f2f-c784-805d-8006-87a906c58f09"><g class="fills" id="fills-30f12f2f-c784-805d-8006-87a906c58f09"><path d="M113.66357421875,38.189453125L113.78857421875,38.95166015625C113.541748046875,39.00390625,113.32275390625,39.02880859375,113.12890625,39.02880859375C112.813232421875,39.02880859375,112.56640625,38.9794921875,112.39111328125,38.880859375C112.216064453125,38.78173828125,112.09423828125,38.65234375,112.022216796875,38.48876953125C111.950439453125,38.328125,111.916015625,37.98876953125,111.916015625,37.47021484375L111.916015625,34.53857421875L111.275146484375,34.53857421875L111.275146484375,33.86572265625L111.916015625,33.86572265625L111.916015625,32.603515625L112.78515625,32.0849609375L112.78515625,33.86572265625L113.66357421875,33.86572265625L113.66357421875,34.53857421875L112.78515625,34.53857421875L112.78515625,37.5166015625C112.78515625,37.763671875,112.80078125,37.9208984375,112.83203125,37.99169921875C112.86328125,38.0625,112.913330078125,38.1181640625,112.98193359375,38.158203125C113.05078125,38.1982421875,113.15087890625,38.22021484375,113.2822265625,38.22021484375C113.379150390625,38.22021484375,113.50732421875,38.2080078125,113.666748046875,38.1865234375Z" class="st0"/></g></g><g id="shape-30f12f2f-c784-805d-8006-87a906c58f0a"><g class="fills" id="fills-30f12f2f-c784-805d-8006-87a906c58f0a"><path d="M114.2607421875,40.92041015625L114.163818359375,40.10888671875C114.3544921875,40.1611328125,114.520263671875,40.18603515625,114.6640625,40.18603515625C114.85791015625,40.18603515625,115.01416015625,40.1552734375,115.1298828125,40.09033203125C115.245361328125,40.025390625,115.34228515625,39.93603515625,115.41748046875,39.82177734375C115.4736328125,39.7353515625,115.561279296875,39.5224609375,115.68310546875,39.1796875C115.69873046875,39.130859375,115.7236328125,39.0625,115.76123046875,38.9697265625L113.80419921875,33.86572265625L114.748291015625,33.86572265625L115.820556640625,36.81640625C115.96142578125,37.189453125,116.083251953125,37.58447265625,116.19580078125,37.9951171875C116.2958984375,37.599609375,116.41455078125,37.2109375,116.555419921875,36.83447265625L117.658935546875,33.86572265625L118.5341796875,33.86572265625L116.571044921875,39.0439453125C116.361572265625,39.6025390625,116.19580078125,39.98828125,116.080078125,40.201171875C115.923828125,40.4853515625,115.74560546875,40.6953125,115.54541015625,40.828125C115.345458984375,40.96044921875,115.104736328125,41.0283203125,114.82666015625,41.0283203125C114.65771484375,41.0283203125,114.47021484375,40.994140625,114.263671875,40.923828125Z" class="st0"/></g></g><g id="shape-30f12f2f-c784-805d-8006-87a906c58f0b"><g class="fills" id="fills-30f12f2f-c784-805d-8006-87a906c58f0b"><path d="M121.6728515625,38.9609375L121.6728515625,31.9306640625L124.345947265625,31.9306640625C124.889892578125,31.9306640625,125.32763671875,32.001953125,125.65576171875,32.1435546875C125.984130859375,32.2861328125,126.24365234375,32.5048828125,126.427978515625,32.80126953125C126.615478515625,33.09765625,126.7060546875,33.40625,126.7060546875,33.72998046875C126.7060546875,34.029296875,126.625,34.3134765625,126.459228515625,34.57861328125C126.29345703125,34.84375,126.04345703125,35.05712890625,125.712158203125,35.220703125C126.1435546875,35.34375,126.474853515625,35.556640625,126.7060546875,35.859375C126.9375,36.15869140625,127.05322265625,36.513671875,127.05322265625,36.923828125C127.05322265625,37.25439453125,126.9814453125,37.5595703125,126.8408203125,37.84375C126.699951171875,38.1279296875,126.52490234375,38.34375,126.318603515625,38.498046875C126.1123046875,38.65234375,125.849609375,38.7666015625,125.5400390625,38.8466796875C125.2275390625,38.923828125,124.843017578125,38.9638671875,124.3896484375,38.9638671875L121.6728515625,38.9638671875ZM122.6171875,34.88427734375L124.158203125,34.88427734375C124.5771484375,34.88427734375,124.874267578125,34.8564453125,125.05859375,34.8037109375C125.29931640625,34.73291015625,125.4775390625,34.61572265625,125.599609375,34.455078125C125.721435546875,34.2919921875,125.78076171875,34.087890625,125.78076171875,33.8408203125C125.78076171875,33.6064453125,125.724609375,33.40283203125,125.612060546875,33.2236328125C125.49951171875,33.044921875,125.3369140625,32.9248046875,125.12744140625,32.85986328125C124.91796875,32.794921875,124.555419921875,32.7607421875,124.042724609375,32.7607421875L122.6201171875,32.7607421875L122.6201171875,34.88427734375ZM122.6171875,38.130859375L124.3896484375,38.130859375C124.69287109375,38.130859375,124.90869140625,38.1181640625,125.030517578125,38.0966796875C125.246337890625,38.0595703125,125.427734375,37.9951171875,125.574462890625,37.9052734375C125.721435546875,37.81591796875,125.84033203125,37.6865234375,125.93408203125,37.513671875C126.02783203125,37.34375,126.07470703125,37.146484375,126.07470703125,36.9208984375C126.07470703125,36.65869140625,126.005859375,36.43017578125,125.87158203125,36.2392578125C125.73388671875,36.04443359375,125.54638671875,35.90869140625,125.3056640625,35.83154296875C125.06494140625,35.75439453125,124.718017578125,35.71435546875,124.2646484375,35.71435546875L122.6171875,35.71435546875L122.6171875,38.130859375Z" class="st0"/></g></g><g id="shape-30f12f2f-c784-805d-8006-87a906c58f0c"><g class="fills" id="fills-30f12f2f-c784-805d-8006-87a906c58f0c"><path d="M131.38623046875,38.3310546875C131.06103515625,38.6025390625,130.75146484375,38.7939453125,130.451416015625,38.908203125C130.1513671875,39.0224609375,129.829345703125,39.0751953125,129.488525390625,39.0751953125C128.922607421875,39.0751953125,128.485107421875,38.939453125,128.181884765625,38.66455078125C127.87841796875,38.3896484375,127.725341796875,38.041015625,127.725341796875,37.615234375C127.725341796875,37.365234375,127.78173828125,37.13671875,127.897216796875,36.93359375C128.012939453125,36.7265625,128.1630859375,36.5595703125,128.3505859375,36.4365234375C128.5380859375,36.31298828125,128.74755859375,36.21728515625,128.97900390625,36.15234375C129.15087890625,36.1064453125,129.410400390625,36.06298828125,129.75732421875,36.02294921875C130.4638671875,35.939453125,130.98291015625,35.8408203125,131.3173828125,35.7265625C131.3173828125,35.609375,131.32373046875,35.5322265625,131.32373046875,35.50146484375C131.32373046875,35.1494140625,131.242431640625,34.90283203125,131.07666015625,34.7578125C130.854736328125,34.5634765625,130.520263671875,34.46484375,130.079345703125,34.46484375C129.666748046875,34.46484375,129.363525390625,34.53515625,129.169677734375,34.677734375C128.975830078125,34.8193359375,128.8291015625,35.072265625,128.735107421875,35.43359375L127.87841796875,35.3193359375C127.956787109375,34.9580078125,128.0849609375,34.6650390625,128.26318359375,34.44287109375C128.44140625,34.220703125,128.69775390625,34.05078125,129.03515625,33.9306640625C129.373046875,33.810546875,129.763671875,33.751953125,130.20751953125,33.751953125C130.651611328125,33.751953125,131.0048828125,33.80419921875,131.27978515625,33.90625C131.554931640625,34.0078125,131.75830078125,34.1376953125,131.88623046875,34.2919921875C132.017578125,34.4462890625,132.1083984375,34.6435546875,132.158447265625,34.8779296875C132.1865234375,35.0263671875,132.2021484375,35.29150390625,132.2021484375,35.67431640625L132.2021484375,36.8251953125C132.2021484375,37.6279296875,132.220947265625,38.13671875,132.25830078125,38.3466796875C132.2958984375,38.5595703125,132.367919921875,38.763671875,132.48046875,38.9580078125L131.567626953125,38.9580078125C131.476806640625,38.77880859375,131.41748046875,38.56884765625,131.392578125,38.328125ZM131.31103515625,36.4052734375C130.9921875,36.53515625,130.51708984375,36.6435546875,129.882568359375,36.732421875C129.52294921875,36.78515625,129.269775390625,36.8408203125,129.11962890625,36.9052734375C128.9697265625,36.970703125,128.85693359375,37.06298828125,128.77587890625,37.1865234375C128.694580078125,37.3095703125,128.65380859375,37.4453125,128.65380859375,37.5966796875C128.65380859375,37.828125,128.741455078125,38.01953125,128.919677734375,38.1708984375C129.09765625,38.3251953125,129.35400390625,38.40234375,129.69482421875,38.40234375C130.03564453125,38.40234375,130.332763671875,38.328125,130.59228515625,38.18310546875C130.854736328125,38.0380859375,131.048583984375,37.83740234375,131.17041015625,37.587890625C131.26416015625,37.39306640625,131.31103515625,37.1064453125,131.31103515625,36.7236328125L131.31103515625,36.4052734375Z" class="st0"/></g></g><g id="shape-30f12f2f-c784-805d-8006-87a906c58f0d"><g class="fills" id="fills-30f12f2f-c784-805d-8006-87a906c58f0d"><path d="M133.333740234375,40.9111328125L133.333740234375,33.86572265625L134.131103515625,33.86572265625L134.131103515625,34.5263671875C134.318603515625,34.26708984375,134.53125,34.072265625,134.768798828125,33.94287109375C135.00634765625,33.8134765625,135.291015625,33.74853515625,135.62841796875,33.74853515625C136.0693359375,33.74853515625,136.45703125,33.859375,136.794677734375,34.0849609375C137.13232421875,34.310546875,137.385498046875,34.625,137.557373046875,35.0322265625C137.729248046875,35.439453125,137.813720703125,35.88720703125,137.813720703125,36.37158203125C137.813720703125,36.89306640625,137.719970703125,37.3623046875,137.529296875,37.77880859375C137.338623046875,38.1953125,137.0634765625,38.5166015625,136.703857421875,38.73828125C136.34130859375,38.9609375,135.962890625,39.072265625,135.56591796875,39.072265625C135.275146484375,39.072265625,135.0126953125,39.01025390625,134.78125,38.8896484375C134.550048828125,38.76953125,134.359130859375,38.615234375,134.209228515625,38.4296875L134.209228515625,40.908203125L133.333740234375,40.908203125ZM134.124755859375,36.4423828125C134.124755859375,37.0966796875,134.25927734375,37.5810546875,134.528076171875,37.896484375C134.796875,38.2109375,135.1220703125,38.365234375,135.50341796875,38.365234375C135.884765625,38.365234375,136.2255859375,38.20166015625,136.50390625,37.8779296875C136.77880859375,37.5537109375,136.919677734375,37.05078125,136.919677734375,36.36865234375C136.919677734375,35.6865234375,136.78515625,35.23291015625,136.51318359375,34.912109375C136.244384765625,34.587890625,135.919189453125,34.427734375,135.544189453125,34.427734375C135.1689453125,34.427734375,134.8408203125,34.6005859375,134.55615234375,34.94287109375C134.2685546875,35.28515625,134.124755859375,35.78515625,134.124755859375,36.4423828125Z" class="st0"/></g></g><g id="shape-30f12f2f-c784-805d-8006-87a906c58f0e"><g class="fills" id="fills-30f12f2f-c784-805d-8006-87a906c58f0e"><path d="M140.555419921875,38.189453125L140.680419921875,38.95166015625C140.43359375,39.00390625,140.214599609375,39.02880859375,140.02099609375,39.02880859375C139.701904296875,39.02880859375,139.4580078125,38.9794921875,139.282958984375,38.880859375C139.10791015625,38.78173828125,138.986083984375,38.65234375,138.9140625,38.48876953125C138.84228515625,38.328125,138.807861328125,37.98876953125,138.807861328125,37.47021484375L138.807861328125,34.53857421875L138.1669921875,34.53857421875L138.1669921875,33.86572265625L138.807861328125,33.86572265625L138.807861328125,32.603515625L139.677001953125,32.0849609375L139.677001953125,33.86572265625L140.555419921875,33.86572265625L140.555419921875,34.53857421875L139.677001953125,34.53857421875L139.677001953125,37.5166015625C139.677001953125,37.763671875,139.692626953125,37.9208984375,139.723876953125,37.99169921875C139.755126953125,38.0625,139.80517578125,38.1181640625,139.8740234375,38.158203125C139.94287109375,38.1982421875,140.042724609375,38.22021484375,140.174072265625,38.22021484375C140.27099609375,38.22021484375,140.399169921875,38.2080078125,140.55859375,38.1865234375Z" class="st0"/></g></g><g id="shape-30f12f2f-c784-805d-8006-87a906c58f0f"><g class="fills" id="fills-30f12f2f-c784-805d-8006-87a906c58f0f"><path d="M141.199462890625,32.92138671875L141.199462890625,31.927734375L142.07470703125,31.927734375L142.07470703125,32.92138671875L141.199462890625,32.92138671875ZM141.199462890625,38.9609375L141.199462890625,33.869140625L142.07470703125,33.869140625L142.07470703125,38.9609375L141.199462890625,38.9609375Z" class="st0"/></g></g><g id="shape-30f12f2f-c784-805d-8006-87a906c58f10"><g class="fills" id="fills-30f12f2f-c784-805d-8006-87a906c58f10"><path d="M142.83447265625,37.439453125L143.700439453125,37.3037109375C143.75048828125,37.646484375,143.884765625,37.908203125,144.10693359375,38.0908203125C144.328857421875,38.2724609375,144.63818359375,38.365234375,145.03857421875,38.365234375C145.438720703125,38.365234375,145.73876953125,38.28515625,145.9326171875,38.12109375C146.12646484375,37.9609375,146.22314453125,37.76953125,146.22314453125,37.5537109375C146.22314453125,37.359375,146.138916015625,37.205078125,145.967041015625,37.09375C145.84814453125,37.0166015625,145.548095703125,36.9208984375,145.07275390625,36.80078125C144.43212890625,36.64013671875,143.988037109375,36.5009765625,143.73779296875,36.38720703125C143.490966796875,36.26953125,143.303466796875,36.109375,143.17529296875,35.90234375C143.047119140625,35.69580078125,142.984619140625,35.4677734375,142.984619140625,35.220703125C142.984619140625,34.9921875,143.03759765625,34.7822265625,143.140869140625,34.5908203125C143.243896484375,34.3994140625,143.3876953125,34.236328125,143.572265625,34.109375C143.7099609375,34.0107421875,143.894287109375,33.927734375,144.128662109375,33.8564453125C144.36328125,33.78857421875,144.616455078125,33.7548828125,144.88525390625,33.7548828125C145.28857421875,33.7548828125,145.64501953125,33.8134765625,145.951416015625,33.927734375C146.2578125,34.0419921875,146.48291015625,34.19921875,146.629638671875,34.396484375C146.776611328125,34.59423828125,146.876708984375,34.8564453125,146.9296875,35.1865234375L146.076416015625,35.30078125C146.038818359375,35.03857421875,145.92626953125,34.8349609375,145.73876953125,34.6865234375C145.55126953125,34.53857421875,145.28857421875,34.4677734375,144.94775390625,34.4677734375C144.54443359375,34.4677734375,144.260009765625,34.5322265625,144.088134765625,34.6650390625C143.916015625,34.7978515625,143.831787109375,34.94921875,143.831787109375,35.125C143.831787109375,35.236328125,143.8662109375,35.337890625,143.93798828125,35.42724609375C144.010009765625,35.52001953125,144.119384765625,35.59716796875,144.2724609375,35.65869140625C144.360107421875,35.689453125,144.616455078125,35.763671875,145.044677734375,35.8779296875C145.66357421875,36.04150390625,146.09521484375,36.173828125,146.3388671875,36.279296875C146.582763671875,36.3837890625,146.776611328125,36.53515625,146.9140625,36.732421875C147.054931640625,36.93017578125,147.12353515625,37.1767578125,147.12353515625,37.47021484375C147.12353515625,37.763671875,147.039306640625,38.02880859375,146.8671875,38.2822265625C146.698486328125,38.53515625,146.451416015625,38.732421875,146.132568359375,38.87109375C145.810546875,39.01025390625,145.447998046875,39.0810546875,145.044677734375,39.0810546875C144.375732421875,39.0810546875,143.863037109375,38.9423828125,143.512939453125,38.66796875C143.16259765625,38.39306640625,142.937744140625,37.9853515625,142.8408203125,37.4453125Z" class="st0"/></g></g><g id="shape-30f12f2f-c784-805d-8006-87a906c58f11"><g class="fills" id="fills-30f12f2f-c784-805d-8006-87a906c58f11"><path d="M149.849609375,38.189453125L149.974853515625,38.95166015625C149.727783203125,39.00390625,149.509033203125,39.02880859375,149.315185546875,39.02880859375C148.996337890625,39.02880859375,148.75244140625,38.9794921875,148.577392578125,38.880859375C148.40234375,38.78173828125,148.2802734375,38.65234375,148.20849609375,38.48876953125C148.136474609375,38.328125,148.10205078125,37.98876953125,148.10205078125,37.47021484375L148.10205078125,34.53857421875L147.46142578125,34.53857421875L147.46142578125,33.86572265625L148.10205078125,33.86572265625L148.10205078125,32.603515625L148.97119140625,32.0849609375L148.97119140625,33.86572265625L149.849609375,33.86572265625L149.849609375,34.53857421875L148.97119140625,34.53857421875L148.97119140625,37.5166015625C148.97119140625,37.763671875,148.98681640625,37.9208984375,149.01806640625,37.99169921875C149.04931640625,38.0625,149.099365234375,38.1181640625,149.168212890625,38.158203125C149.237060546875,38.1982421875,149.3369140625,38.22021484375,149.46826171875,38.22021484375C149.565185546875,38.22021484375,149.693359375,38.2080078125,149.852783203125,38.1865234375Z" class="st0"/></g></g><g id="shape-30f12f2f-c784-805d-8006-87a906c58f12"><g class="fills" id="fills-30f12f2f-c784-805d-8006-87a906c58f12"><path d="M158.224853515625,36.4951171875L159.1689453125,36.7294921875C158.97216796875,37.4951171875,158.61572265625,38.0751953125,158.10302734375,38.4794921875C157.59033203125,38.880859375,156.9619140625,39.0810546875,156.220947265625,39.0810546875C155.47998046875,39.0810546875,154.829833984375,38.9267578125,154.348388671875,38.6181640625C153.866943359375,38.3095703125,153.501220703125,37.8623046875,153.2509765625,37.279296875C153.0009765625,36.6923828125,152.8759765625,36.06640625,152.8759765625,35.3935546875C152.8759765625,34.662109375,153.0166015625,34.0234375,153.301025390625,33.47705078125C153.58544921875,32.9306640625,153.98876953125,32.517578125,154.510986328125,32.236328125C155.032958984375,31.95556640625,155.6083984375,31.810546875,156.236572265625,31.810546875C156.949462890625,31.810546875,157.549560546875,31.9892578125,158.0341796875,32.34765625C158.518798828125,32.70556640625,158.859619140625,33.20849609375,159.05029296875,33.8564453125L158.121826171875,34.072265625C157.9560546875,33.560546875,157.718505859375,33.18701171875,157.40283203125,32.95556640625C157.090087890625,32.720703125,156.693115234375,32.6064453125,156.2177734375,32.6064453125C155.6708984375,32.6064453125,155.21435546875,32.736328125,154.845458984375,32.99560546875C154.4765625,33.2548828125,154.22021484375,33.603515625,154.070068359375,34.03857421875C153.920166015625,34.4736328125,153.84814453125,34.92431640625,153.84814453125,35.390625C153.84814453125,35.9892578125,153.935791015625,36.5107421875,154.114013671875,36.955078125C154.2919921875,37.3994140625,154.564208984375,37.7353515625,154.93603515625,37.955078125C155.30810546875,38.173828125,155.71142578125,38.28515625,156.14599609375,38.28515625C156.67431640625,38.28515625,157.121337890625,38.1337890625,157.487060546875,37.83447265625C157.852783203125,37.53515625,158.099853515625,37.087890625,158.231201171875,36.498046875Z" class="st0"/></g></g><g id="shape-30f12f2f-c784-805d-8006-87a906c58f13"><g class="fills" id="fills-30f12f2f-c784-805d-8006-87a906c58f13"><path d="M159.99755859375,38.9609375L159.99755859375,31.9306640625L160.872802734375,31.9306640625L160.872802734375,34.4521484375C161.279296875,33.986328125,161.795166015625,33.751953125,162.417236328125,33.751953125C162.798583984375,33.751953125,163.1298828125,33.82568359375,163.41455078125,33.9736328125C163.69580078125,34.1220703125,163.89892578125,34.32861328125,164.017822265625,34.5908203125C164.1396484375,34.853515625,164.19921875,35.23291015625,164.19921875,35.73291015625L164.19921875,38.9609375L163.32373046875,38.9609375L163.32373046875,35.73291015625C163.32373046875,35.30078125,163.22998046875,34.986328125,163.039306640625,34.7919921875C162.8486328125,34.59423828125,162.5830078125,34.4951171875,162.23583984375,34.4951171875C161.976318359375,34.4951171875,161.732666015625,34.560546875,161.50439453125,34.69287109375C161.276123046875,34.82568359375,161.113525390625,35.0048828125,161.0166015625,35.23291015625C160.919677734375,35.46142578125,160.86962890625,35.77294921875,160.86962890625,36.173828125L160.86962890625,38.9609375L159.994384765625,38.9609375Z" class="st0"/></g></g><g id="shape-30f12f2f-c784-805d-8006-87a906c58f14"><g class="fills" id="fills-30f12f2f-c784-805d-8006-87a906c58f14"><path d="M168.694580078125,38.9609375L168.694580078125,38.2138671875C168.29150390625,38.7880859375,167.74755859375,39.078125,167.056640625,39.078125C166.753173828125,39.078125,166.46875,39.01953125,166.203125,38.9052734375C165.9404296875,38.791015625,165.743408203125,38.64599609375,165.615234375,38.47021484375C165.487060546875,38.2939453125,165.396484375,38.0810546875,165.346435546875,37.828125C165.31201171875,37.658203125,165.293212890625,37.39013671875,165.293212890625,37.0224609375L165.293212890625,33.86572265625L166.168701171875,33.86572265625L166.168701171875,36.689453125C166.168701171875,37.14013671875,166.1875,37.4453125,166.221923828125,37.599609375C166.278076171875,37.828125,166.393798828125,38.00390625,166.572021484375,38.1337890625C166.750244140625,38.263671875,166.968994140625,38.328125,167.231689453125,38.328125C167.494140625,38.328125,167.7412109375,38.263671875,167.96923828125,38.130859375C168.20068359375,37.998046875,168.36328125,37.81591796875,168.45703125,37.587890625C168.553955078125,37.359375,168.600830078125,37.02587890625,168.600830078125,36.59375L168.600830078125,33.86572265625L169.476318359375,33.86572265625L169.476318359375,38.9580078125L168.694580078125,38.9580078125Z" class="st0"/></g></g><g id="shape-30f12f2f-c784-805d-8006-87a906c58f15"><g class="fills" id="fills-30f12f2f-c784-805d-8006-87a906c58f15"><path d="M170.6171875,38.9609375L170.6171875,33.869140625L171.405029296875,33.869140625L171.405029296875,34.640625C171.605224609375,34.279296875,171.792724609375,34.0419921875,171.961669921875,33.9248046875C172.13037109375,33.80712890625,172.31787109375,33.751953125,172.521240234375,33.751953125C172.81494140625,33.751953125,173.115234375,33.84423828125,173.421630859375,34.029296875L173.121337890625,34.83203125C172.908935546875,34.7080078125,172.693115234375,34.6435546875,172.48046875,34.6435546875C172.289794921875,34.6435546875,172.117919921875,34.69921875,171.964599609375,34.8134765625C171.8115234375,34.927734375,171.705322265625,35.0849609375,171.6396484375,35.28515625C171.542724609375,35.5908203125,171.49267578125,35.92724609375,171.49267578125,36.29150390625L171.49267578125,38.9580078125L170.6171875,38.9580078125Z" class="st0"/></g></g><g id="shape-30f12f2f-c784-805d-8006-87a906c58f16"><g class="fills" id="fills-30f12f2f-c784-805d-8006-87a906c58f16"><path d="M177.088623046875,37.09375L177.9482421875,37.205078125C177.8544921875,37.791015625,177.61376953125,38.248046875,177.22607421875,38.578125C176.83837890625,38.908203125,176.36328125,39.0751953125,175.800537109375,39.0751953125C175.093994140625,39.0751953125,174.5283203125,38.8466796875,174.096923828125,38.39306640625C173.66845703125,37.9365234375,173.452880859375,37.28515625,173.452880859375,36.43359375C173.452880859375,35.8837890625,173.54345703125,35.40234375,173.73095703125,34.9892578125C173.91552734375,34.57568359375,174.19677734375,34.26708984375,174.5751953125,34.060546875C174.953369140625,33.853515625,175.363037109375,33.751953125,175.806884765625,33.751953125C176.366455078125,33.751953125,176.825927734375,33.890625,177.182373046875,34.17138671875C177.538818359375,34.4521484375,177.766845703125,34.84716796875,177.866943359375,35.3623046875L177.0166015625,35.4921875C176.935302734375,35.1494140625,176.79150390625,34.8935546875,176.585205078125,34.720703125C176.37890625,34.5478515625,176.132080078125,34.46142578125,175.838134765625,34.46142578125C175.397216796875,34.46142578125,175.041015625,34.619140625,174.765869140625,34.9306640625C174.49072265625,35.2421875,174.35302734375,35.73583984375,174.35302734375,36.40869140625C174.35302734375,37.08154296875,174.484375,37.5908203125,174.750244140625,37.8994140625C175.015869140625,38.2080078125,175.363037109375,38.365234375,175.791259765625,38.365234375C176.135009765625,38.365234375,176.422607421875,38.26025390625,176.65087890625,38.0537109375C176.88232421875,37.8466796875,177.026123046875,37.52587890625,177.088623046875,37.09375Z" class="st0"/></g></g><g id="shape-30f12f2f-c784-805d-8006-87a906c58f17"><g class="fills" id="fills-30f12f2f-c784-805d-8006-87a906c58f17"><path d="M178.4765625,38.9609375L178.4765625,31.9306640625L179.35205078125,31.9306640625L179.35205078125,34.4521484375C179.75830078125,33.986328125,180.274169921875,33.751953125,180.896240234375,33.751953125C181.27783203125,33.751953125,181.609130859375,33.82568359375,181.8935546875,33.9736328125C182.175048828125,34.1220703125,182.378173828125,34.32861328125,182.4970703125,34.5908203125C182.618896484375,34.853515625,182.67822265625,35.23291015625,182.67822265625,35.73291015625L182.67822265625,38.9609375L181.802978515625,38.9609375L181.802978515625,35.73291015625C181.802978515625,35.30078125,181.709228515625,34.986328125,181.5185546875,34.7919921875C181.32763671875,34.59423828125,181.06201171875,34.4951171875,180.715087890625,34.4951171875C180.45556640625,34.4951171875,180.211669921875,34.560546875,179.9833984375,34.69287109375C179.75537109375,34.82568359375,179.5927734375,35.0048828125,179.495849609375,35.23291015625C179.39892578125,35.46142578125,179.348876953125,35.77294921875,179.348876953125,36.173828125L179.348876953125,38.9609375L178.473388671875,38.9609375Z" class="st0"/></g></g><g id="shape-30f12f2f-c784-805d-8006-87a906c58f18"><g class="fills" id="fills-30f12f2f-c784-805d-8006-87a906c58f18"><path d="M40.791015625,26.638671875L24.0751953125,26.638671875C18.98876953125,26.638671875,18.279052734375,22.3798828125,19.366943359375,20.595703125L28.3955078125,5.7802734375C29.167724609375,4.5087890625,30.386962890625,4.224609375,31.915771484375,4.224609375L36.1298828125,4.224609375L38.230712890625,7.85693359375L36.60205078125,7.85693359375L38.53076171875,11.30078125L32.072021484375,11.30078125L34.379150390625,15.291015625L40.800537109375,15.28515625L44.111083984375,20.7568359375C45.85546875,23.6572265625,43.138916015625,26.638671875,40.791015625,26.638671875" class="st2"/></g></g><g id="shape-30f12f2f-c784-805d-8006-87a906c58f19"><g class="fills" id="fills-30f12f2f-c784-805d-8006-87a906c58f19"><path d="M42.17919921875,7.8603515625L40.103271484375,4.2275390625L39.287353515625,4.2275390625L41.36328125,7.8603515625L42.17919921875,7.8603515625Z" class="st2"/></g></g><g id="shape-30f12f2f-c784-805d-8006-87a906c58f1a"><g class="fills" id="fills-30f12f2f-c784-805d-8006-87a906c58f1a"><path d="M40.365966796875,7.8603515625L38.2900390625,4.2275390625L37.47412109375,4.2275390625L39.54052734375,7.8603515625L40.365966796875,7.8603515625Z" class="st2"/></g></g><g id="shape-30f12f2f-c784-805d-8006-87a906c58f1b"><g class="fills" id="fills-30f12f2f-c784-805d-8006-87a906c58f1b"><path d="M50.576171875,26.638671875L49.7509765625,26.638671875L47.675048828125,23.0029296875L48.50048828125,23.0029296875L50.576171875,26.638671875Z" class="st2"/></g></g><g id="shape-30f12f2f-c784-805d-8006-87a906c58f1c"><g class="fills" id="fills-30f12f2f-c784-805d-8006-87a906c58f1c"><path d="M48.7568359375,26.638671875L46.687255859375,23.0029296875L45.86181640625,23.0029296875L47.937744140625,26.638671875L48.7568359375,26.638671875Z" class="st2"/></g></g><g id="shape-30f12f2f-c784-805d-8006-87a906c58f1d"><g class="fills" id="fills-30f12f2f-c784-805d-8006-87a906c58f1d"><path d="M63.671875,4.2275390625L46.9560546875,4.2275390625C44.61767578125,4.2275390625,41.94140625,7.1748046875,43.645263671875,10.1005859375L44.33935546875,11.294921875L50.33544921875,11.294921875L52.642578125,15.2880859375L46.646484375,15.2880859375L51.138916015625,23.005859375L49.51953125,23.005859375L51.620361328125,26.6416015625L55.83447265625,26.6416015625C57.35400390625,26.6416015625,58.5732421875,26.3603515625,59.354736328125,25.0859375L68.38330078125,10.2705078125C69.46484375,8.486328125,68.761474609375,4.2275390625,63.675048828125,4.2275390625M67.323486328125,9.6650390625L58.25732421875,24.54296875C58.13232421875,24.7099609375,58.01025390625,24.8544921875,57.847900390625,24.984375C57.27587890625,25.39453125,56.512939453125,25.42578125,55.8251953125,25.4345703125L52.330078125,25.4345703125L51.2109375,23.505859375L52.839599609375,23.505859375L48.7568359375,16.48828125L54.7373046875,16.48828125L51.04833984375,10.087890625L45.0458984375,10.087890625L44.598876953125,9.30419921875C44.298828125,8.62548828125,44.242431640625,8.0634765625,44.473876953125,7.3603515625C44.86767578125,6.37890625,45.739990234375,5.5546875,46.833984375,5.4345703125L46.98095703125,5.42529296875L64.06591796875,5.4345703125L64.775634765625,5.517578125C65.43212890625,5.6474609375,65.941650390625,5.82958984375,66.482421875,6.2119140625C66.87646484375,6.5390625,67.123291015625,6.8505859375,67.339111328125,7.3017578125C67.6484375,8.0546875,67.7236328125,8.9306640625,67.323486328125,9.662109375" class="st2"/></g></g></g><g id="shape-30f12f2f-c784-805d-8006-87a906c54e0f"><g class="fills" id="fills-30f12f2f-c784-805d-8006-87a906c54e0f"><rect rx="0" ry="0" x="-103" y="51" transform="matrix(1.000000, 0.000000, 0.000000, 1.000000, 0.000000, 0.000000)" width="413" height="2" style="fill: rgb(103, 232, 249); fill-opacity: 1;"/></g></g></g></g></g></g></g></g></svg>