<svg width="45" xmlns="http://www.w3.org/2000/svg" height="45" id="screenshot-2e2e2b6e-246d-80b2-8006-82663d9b8c5a" viewBox="0 0 45 45" xmlns:xlink="http://www.w3.org/1999/xlink" fill="none" version="1.1"><g id="shape-2e2e2b6e-246d-80b2-8006-82663d9b8c5a" width="24" height="24" rx="0" ry="0" style="fill: rgb(0, 0, 0);"><g id="shape-2e2e2b6e-246d-80b2-8006-82663d9b8c5b" style="display: none;"><g class="fills" id="fills-2e2e2b6e-246d-80b2-8006-82663d9b8c5b"><rect width="45" height="45" x="0" transform="matrix(1.000000, 0.000000, 0.000000, 1.000000, 0.000000, 0.000000)" style="fill: none;" ry="0" fill="none" rx="0" y="0"/></g></g><g id="shape-2e2e2b6e-246d-80b2-8006-82663d9b8c5c"><g class="fills" id="fills-2e2e2b6e-246d-80b2-8006-82663d9b8c5c"><path d="M33.75,3.75L11.25,3.75C9.1875,3.75,7.5,5.4375,7.5,7.5L7.5,37.5C7.5,39.5625,9.1875,41.25,11.25,41.25L33.75,41.25C35.8125,41.25,37.5,39.5625,37.5,37.5L37.5,7.5C37.5,5.4375,35.8125,3.75,33.75,3.75M16.875,7.5L20.625,7.5L20.625,16.875L18.75,15.46875L16.875,16.875ZM33.75,37.5L11.25,37.5L11.25,7.5L13.125,7.5L13.125,24.375L18.75,20.15625L24.375,24.375L24.375,7.5L33.75,7.5Z"/></g></g></g></svg>