<svg width="40" xmlns="http://www.w3.org/2000/svg" height="40" id="screenshot-2e2e2b6e-246d-80b2-8006-826648d73dd4" viewBox="0 0 40 40" xmlns:xlink="http://www.w3.org/1999/xlink" fill="none" version="1.1"><g id="shape-2e2e2b6e-246d-80b2-8006-826648d73dd4" width="12" height="12" rx="0" ry="0" style="fill: rgb(0, 0, 0);"><g id="shape-2e2e2b6e-246d-80b2-8006-826648d73dd5" style="display: none;"><g class="fills" id="fills-2e2e2b6e-246d-80b2-8006-826648d73dd5"><rect width="40" height="40" x="0" transform="matrix(1.000000, 0.000000, 0.000000, 1.000000, 0.000000, 0.000000)" style="fill: none;" ry="0" fill="none" rx="0" y="0"/></g></g><g id="shape-2e2e2b6e-246d-80b2-8006-826648d73dd6"><g class="fills" id="fills-2e2e2b6e-246d-80b2-8006-826648d73dd6"><path d="M0,40L36.6666259765625,40L36.6666259765625,13.3330078125L33.3333740234375,13.3330078125L33.3333740234375,16.6669921875L23.33331298828125,16.6669921875L23.33331298828125,6.6669921875L26.6666259765625,6.6669921875L26.6666259765625,3.3330078125L0,3.3330078125ZM3.33331298828125,36.6669921875L3.33331298828125,6.6669921875L20,6.6669921875L20,10L6.66668701171875,10L6.66668701171875,20L33.3333740234375,20L33.3333740234375,36.6669921875ZM6.66668701171875,33.3330078125L16.66668701171875,33.3330078125L16.66668701171875,30L6.66668701171875,30ZM6.66668701171875,26.6669921875L16.66668701171875,26.6669921875L16.66668701171875,23.3330078125L6.66668701171875,23.3330078125ZM20,33.3330078125L23.33331298828125,33.3330078125L23.33331298828125,23.3330078125L20,23.3330078125ZM26.6666259765625,33.3330078125L30,33.3330078125L30,23.3330078125L26.6666259765625,23.3330078125ZM26.6666259765625,10L30,10L30,6.6669921875L26.6666259765625,6.6669921875ZM30,13.3330078125L33.3333740234375,13.3330078125L33.3333740234375,10L30,10ZM30,13.3330078125"/></g></g></g></svg>