<svg width="43" xmlns="http://www.w3.org/2000/svg" height="34.042" id="screenshot-30f12f2f-c784-805d-8006-87b3e5b37c11" viewBox="195.5 6252.583 43 34.042" xmlns:xlink="http://www.w3.org/1999/xlink" fill="none" version="1.1"><g id="shape-30f12f2f-c784-805d-8006-87b3e5b37c11"><g class="fills" id="fills-30f12f2f-c784-805d-8006-87b3e5b37c11"><path fill="#000000" d="M205.354248046875,6261.54150390625C205.354248046875,6258.5732421875,207.7606201171875,6256.16650390625,210.729248046875,6256.16650390625C213.69775390625,6256.16650390625,216.104248046875,6258.5732421875,216.104248046875,6261.54150390625C216.104248046875,6264.51025390625,213.69775390625,6266.91650390625,210.729248046875,6266.91650390625C207.7606201171875,6266.91650390625,205.354248046875,6264.51025390625,205.354248046875,6261.54150390625M210.729248046875,6252.58349609375C205.7816162109375,6252.58349609375,201.770751953125,6256.59423828125,201.770751953125,6261.54150390625C201.770751953125,6266.4892578125,205.7816162109375,6270.5,210.729248046875,6270.5C215.6767578125,6270.5,219.6875,6266.4892578125,219.6875,6261.54150390625C219.6875,6256.59423828125,215.6767578125,6252.58349609375,210.729248046875,6252.58349609375M223.270751953125,6252.58349609375L221.479248046875,6252.58349609375L221.479248046875,6256.16650390625L223.270751953125,6256.16650390625C226.2393798828125,6256.16650390625,228.645751953125,6258.5732421875,228.645751953125,6261.54150390625C228.645751953125,6264.51025390625,226.2393798828125,6266.91650390625,223.270751953125,6266.91650390625L221.479248046875,6266.91650390625L221.479248046875,6270.5L223.270751953125,6270.5C228.2183837890625,6270.5,232.229248046875,6266.4892578125,232.229248046875,6261.54150390625C232.229248046875,6256.59423828125,228.2183837890625,6252.58349609375,223.270751953125,6252.58349609375M195.5,6283.04150390625C195.5,6278.09423828125,199.5107421875,6274.08349609375,204.458251953125,6274.08349609375L217,6274.08349609375C221.947509765625,6274.08349609375,225.958251953125,6278.09423828125,225.958251953125,6283.04150390625L225.958251953125,6286.625L222.375,6286.625L222.375,6283.04150390625C222.375,6280.0732421875,219.968505859375,6277.66650390625,217,6277.66650390625L204.458251953125,6277.66650390625C201.48974609375,6277.66650390625,199.083251953125,6280.0732421875,199.083251953125,6283.04150390625L199.083251953125,6286.625L195.5,6286.625ZM238.5,6283.04150390625C238.5,6278.09423828125,234.4892578125,6274.08349609375,229.541748046875,6274.08349609375L227.75,6274.08349609375L227.75,6277.66650390625L229.541748046875,6277.66650390625C232.51025390625,6277.66650390625,234.916748046875,6280.0732421875,234.916748046875,6283.04150390625L234.916748046875,6286.625L238.5,6286.625Z"/></g></g></svg>