<svg width="50" xmlns="http://www.w3.org/2000/svg" height="50" id="screenshot-2e2e2b6e-246d-80b2-8006-826648d73ddb" viewBox="0 0 50 50" xmlns:xlink="http://www.w3.org/1999/xlink" fill="none" version="1.1"><g id="shape-2e2e2b6e-246d-80b2-8006-826648d73ddb" width="24" height="24" rx="0" ry="0" style="fill: rgb(0, 0, 0);"><g id="shape-2e2e2b6e-246d-80b2-8006-826648d73ddc" style="display: none;"><g class="fills" id="fills-2e2e2b6e-246d-80b2-8006-826648d73ddc"><rect width="50" height="50" x="0" transform="matrix(1.000000, 0.000000, 0.000000, 1.000000, 0.000000, 0.000000)" style="fill: none;" ry="0" fill="none" rx="0" y="0"/></g></g><g id="shape-2e2e2b6e-246d-80b2-8006-826648d73ddd" rx="0" ry="0" style="fill: rgb(0, 0, 0);"><g id="shape-2e2e2b6e-246d-80b2-8006-826648d73dde"><g class="fills" id="fills-2e2e2b6e-246d-80b2-8006-826648d73dde"><path d="M26.23748779296875,48.4541015625L26.2125244140625,48.45849609375L26.0645751953125,48.53125L26.02294921875,48.53955078125L25.99371337890625,48.53125L25.8458251953125,48.4560546875C25.8236083984375,48.45068359375,25.80694580078125,48.455078125,25.7957763671875,48.46875L25.7874755859375,48.48974609375L25.7520751953125,49.38134765625L25.762451171875,49.4228515625L25.7833251953125,49.4501953125L26,49.60400390625L26.03125,49.6123046875L26.05621337890625,49.60400390625L26.27288818359375,49.4501953125L26.2978515625,49.41650390625L26.3062744140625,49.38134765625L26.27081298828125,48.49169921875C26.2652587890625,48.46923828125,26.254150390625,48.45703125,26.23748779296875,48.4541015625M26.7874755859375,48.21875L26.75830078125,48.22265625L26.375,48.41650390625L26.3541259765625,48.4375L26.347900390625,48.46044921875L26.38543701171875,49.3564453125L26.3958740234375,49.38134765625L26.4124755859375,49.39794921875L26.83123779296875,49.58984375C26.857666015625,49.5966796875,26.8778076171875,49.5908203125,26.8916015625,49.57275390625L26.89996337890625,49.5439453125L26.82916259765625,48.2646484375C26.82220458984375,48.23828125,26.808349609375,48.22265625,26.7874755859375,48.21875M25.29791259765625,48.22265625C25.27886962890625,48.21142578125,25.2540283203125,48.216796875,25.24169921875,48.2353515625L25.2291259765625,48.2646484375L25.1583251953125,49.5439453125C25.15966796875,49.56884765625,25.1715087890625,49.58544921875,25.1937255859375,49.59375L25.2249755859375,49.58984375L25.64373779296875,49.39599609375L25.66455078125,49.37939453125L25.6707763671875,49.3564453125L25.70831298828125,48.46044921875L25.70208740234375,48.435546875L25.6812744140625,48.41455078125Z" fill-rule="evenodd" fill="none" style="fill: none;"/></g></g><g id="shape-2e2e2b6e-246d-80b2-8006-826648d73ddf"><g class="fills" id="fills-2e2e2b6e-246d-80b2-8006-826648d73ddf"><path d="M25,18.75C28.652099609375,18.75,31.96044921875,20.04150390625,34.4749755859375,21.873046875C36.2520751953125,23.16650390625,37.7437744140625,24.814453125,38.64794921875,26.59375L38.8770751953125,27.08349609375L43.75,27.08349609375C44.4239501953125,27.083984375,45.05615234375,27.41015625,45.4466552734375,27.95947265625C45.837158203125,28.5087890625,45.937744140625,29.21337890625,45.7166748046875,29.85009765625L45.612548828125,30.10009765625L39.362548828125,42.60009765625C39.05059814453125,43.2216796875,38.44879150390625,43.64697265625,37.75830078125,43.7333984375L37.5,43.75L12.5,43.75C11.8035888671875,43.75,11.15313720703125,43.40234375,10.76666259765625,42.82275390625L10.637451171875,42.59765625L4.387451171875,30.09765625C4.08587646484375,29.4951171875,4.0946044921875,28.783203125,4.4111328125,28.18798828125C4.72760009765625,27.5927734375,5.31268310546875,27.1875,5.98126220703125,27.10009765625L6.25,27.08349609375L11.120849609375,27.08349609375C11.98748779296875,25.11669921875,13.58538818359375,23.28515625,15.5250244140625,21.873046875C18.03955078125,20.04150390625,21.347900390625,18.75,25,18.75M40.379150390625,31.25L9.620849609375,31.25L13.78753662109375,39.58349609375L36.21246337890625,39.58349609375ZM25,22.91650390625C22.4735107421875,22.9384765625,20.0174560546875,23.75146484375,17.97705078125,25.24169921875C17.17706298828125,25.8251953125,16.5167236328125,26.4541015625,15.9979248046875,27.08349609375L34.0020751953125,27.08349609375C33.421875,26.38916015625,32.7569580078125,25.7705078125,32.02294921875,25.24169921875C29.9825439453125,23.75146484375,27.5264892578125,22.9384765625,25,22.91650390625M25,6.25C28.4517822265625,6.25,31.25,9.04833984375,31.25,12.5C31.25,15.95166015625,28.4517822265625,18.75,25,18.75C21.5482177734375,18.75,18.75,15.95166015625,18.75,12.5C18.75,9.04833984375,21.5482177734375,6.25,25,6.25M25,10.41650390625C23.84942626953125,10.41650390625,22.9166259765625,11.349609375,22.9166259765625,12.5C22.9166259765625,13.650390625,23.84942626953125,14.58349609375,25,14.58349609375C26.15057373046875,14.58349609375,27.0833740234375,13.650390625,27.0833740234375,12.5C27.0833740234375,11.349609375,26.15057373046875,10.41650390625,25,10.41650390625" fill-rule="evenodd" style="fill: rgb(0, 0, 0);"/></g></g></g></g></svg>