<svg width="206" height="46" viewBox="0 0 206 46" xmlns="http://www.w3.org/2000/svg">
  <g fill="#000">
    <path d="M72.719,22.701L71.303,22.701L71.366,20.926L71.366,10.548L71.303,9.295L72.819,9.360L75.114,9.360L76.286,9.295C75.527,12.520,74.720,14.279,74.720,14.279C77.606,17.507,76.699,20.093,73.795,20.272C73.795,20.272,73.976,19.275,73.232,18.578C74.998,18.744,75.392,18.596,74.948,16.967C74.720,16.137,74.157,15.208,73.429,14.572C73.429,14.572,73.976,13.563,74.570,10.548L72.654,10.548L72.654,20.892L72.719,22.701ZM81.204,14.720L82.970,14.720L84.486,14.671L84.486,16.118L82.970,16.050L81.204,16.050L81.204,20.747L81.266,22.617L79.666,22.617L79.713,20.747L79.713,16.050L78.165,16.050L76.380,16.100L76.380,14.649L78.146,14.717L79.713,14.717L79.713,10.872C79.713,10.872,77.784,11.363,77.124,11.477C76.977,10.872,76.264,10.110,76.264,10.110C76.264,10.110,79.434,10.076,82.620,8.557C83.098,9.227,83.777,10.091,83.777,10.091C83.777,10.091,82.883,10.236,82.504,10.320C81.864,10.468,81.204,10.597,81.204,10.597L81.204,14.717Z"/>
    <path d="M93.256,8.949C92.565,11.199,91.639,14.211,91.639,14.211C94.478,17.877,92.893,20.161,90.451,20.321C90.354,19.389,89.923,18.988,89.726,18.677C92.102,19.167,92.468,16.769,90.289,14.622C90.289,14.622,90.817,12.600,91.445,10.221L89.563,10.221L89.563,20.729L89.629,22.667L88.110,22.667L88.179,20.760L88.179,10.530L88.110,8.885L89.829,8.946L93.262,8.946ZM95.303,9.082L100.155,9.082L101.640,9.017L101.640,10.437L100.155,10.357L98.007,10.357L97.448,12.603L99.264,12.603L100.587,12.538L100.518,14.084L100.518,20.291L100.587,22.506L99.136,22.506L99.136,21.432L95.241,21.432L95.241,22.543L93.787,22.543L93.853,20.324L93.853,14.152L93.787,12.538L95.072,12.603L96.229,12.603L96.494,10.357L95.206,10.357L93.721,10.437L93.721,9.017L95.306,9.082ZM95.238,13.853L95.238,16.433L99.133,16.433L99.133,13.853L95.238,13.853ZM95.238,17.664L95.238,20.189L99.133,20.189L99.133,17.664L95.238,17.664Z"/>
    <path d="M108.027,22.784L106.526,22.784L106.592,21.543L106.592,16.526C106.176,17.291,104.710,18.513,104.710,18.513C104.479,17.680,103.916,17.047,103.916,17.047C104.791,16.587,106.901,14.569,107.649,13.008L105.304,13.008L104.213,13.038L104.213,11.637L105.335,11.702L108.668,11.702L109.859,11.668C109.412,13.069,108.355,14.600,107.977,15.057L107.977,21.540L108.027,22.781ZM107.977,8.675C108.386,9.313,108.768,10.857,108.768,10.857C108.274,10.925,107.020,11.313,107.020,11.313C107.020,11.313,106.952,9.915,106.423,9.036L107.977,8.678ZM110.650,17.476C110.203,17.618,109.296,18.288,109.296,18.288C109.018,17.751,108.474,16.529,108.077,16.007L109.168,15.356C109.762,16.106,110.653,17.479,110.653,17.479ZM113.388,12.912L113.388,9.847L113.326,8.545L114.911,8.545L114.845,9.817L114.845,12.912L116.199,12.912L117.884,12.844L117.884,14.149L116.262,14.082L114.845,14.082L114.845,20.374L117.090,20.374L118.544,20.306L118.544,21.741L117.121,21.673L111.381,21.673L109.565,21.741L109.565,20.306L111.610,20.374L113.392,20.374L113.392,14.082L111.744,14.082L110.422,14.149L110.422,12.844L111.907,12.912L113.392,12.912Z"/>
    <path d="M123.758,8.949L133.265,8.949L134.847,8.888L134.847,10.187L133.265,10.110L123.596,10.110L123.596,21.432L133.993,21.432L135.510,21.365L135.510,22.750L133.993,22.688L123.761,22.688L122.158,22.750L122.223,21.173L122.223,10.418L122.158,8.888L123.761,8.949ZM126.072,16.072L127.707,16.072L129.192,16.007L129.126,17.263L129.126,19.102L129.192,20.392L127.907,20.328L126.140,20.328L124.655,20.362L124.718,19.143L124.718,17.266L124.655,16.010L126.072,16.075ZM127.075,11.036L131.630,11.036L133.002,10.971L132.934,12.208L132.934,13.770L133.002,15.075L131.568,15.007L127.178,15.007L125.709,15.075L125.771,13.736L125.771,12.236L125.709,10.968L127.078,11.032ZM125.972,17.192L125.972,19.232L127.869,19.232L127.869,17.192L125.972,17.192ZM127.009,12.211L127.009,13.838L131.630,13.838L131.630,12.211L127.009,12.211ZM131.333,16.004L133.103,16.004L134.587,15.939L134.522,17.192L134.522,18.988L134.587,20.321L133.303,20.257L131.402,20.257L129.917,20.287L129.986,19.019L129.986,17.192L129.917,15.939L131.333,16.004ZM131.233,17.130L131.233,19.136L133.265,19.136L133.265,17.130L131.233,17.130Z"/>
  </g>
</svg>